<?xml version="1.0" encoding="UTF-8"?>
<svg id="_Слой_2" data-name="Слой 2" xmlns="http://www.w3.org/2000/svg" viewBox="0 0 122.37 99.45">
  <defs>
    <style>
      .cls-1 {
        fill: #f2956a;
      }
    </style>
  </defs>
  <g id="_Слой_1-2" data-name="Слой 1">
    <g>
      <rect class="cls-1" x="22.95" y="68.88" width="22.92" height="7.59"/>
      <polygon class="cls-1" points="45.87 56.23 38.22 56.23 38.22 0 30.57 0 30.57 56.23 22.95 56.23 22.95 63.83 45.87 63.83 45.87 56.23"/>
      <rect class="cls-1" x="15.29" y="76.53" width="7.59" height="7.59"/>
      <rect class="cls-1" x="22.96" y="84.21" width="7.59" height="7.59"/>
      <rect class="cls-1" x="38.25" y="84.18" width="7.59" height="7.59"/>
      <rect class="cls-1" x="30.59" y="76.54" width="7.59" height="7.59"/>
      <rect class="cls-1" x="45.9" y="76.53" width="7.59" height="7.59"/>
      <rect class="cls-1" x="7.65" y="84.18" width="7.59" height="7.59"/>
      <rect class="cls-1" x="104.44" y="32.32" width="5.27" height="5.27"/>
      <rect class="cls-1" x="95.6" y="32.32" width="5.27" height="5.27"/>
      <polygon class="cls-1" points="114.72 22.95 114.72 91.8 61.17 91.8 61.17 45.9 114.72 45.9 114.72 39.3 61.17 39.3 61.17 30.6 114.72 30.6 114.72 22.95 53.52 22.95 53.52 30.6 53.52 30.6 53.52 39.3 53.52 39.3 53.52 45.9 53.52 45.9 53.52 91.8 53.52 91.83 0 91.83 0 99.42 53.52 99.42 53.52 99.45 53.52 99.45 61.17 99.45 61.17 99.45 114.72 99.45 122.37 99.45 122.37 22.95 114.72 22.95"/>
      <path class="cls-1" d="M70.77,70.2c0,9.82,7.99,17.8,17.8,17.8s17.8-7.99,17.8-17.8-7.99-17.8-17.8-17.8-17.8,7.99-17.8,17.8ZM100.13,70.2c0,6.37-5.19,11.56-11.56,11.56s-11.56-5.19-11.56-11.56,5.19-11.56,11.56-11.56,11.56,5.19,11.56,11.56Z"/>
    </g>
  </g>
</svg>