<!-- icon666.com - MILLIONS OF FREE VECTOR ICONS -->
<svg fill="#fff" id="Capa_1" enable-background="new 0 0 512 512" viewBox="0 0 512 512" xmlns="http://www.w3.org/2000/svg">
    <g>
        <path d="m200.996 166.12c-5.522 0-10 4.478-10 10v258.881c0 5.522 4.478 10 10 10s10-4.478 10-10v-258.881c0-5.522-4.477-10-10-10z"></path>
        <path d="m481.812 492h-10.408v-328.587c0-5.522-4.478-10-10-10h-12.721v-32.937c0-5.522-4.478-10-10-10h-24.213v-9.489c0-5.522-4.478-10-10-10s-10 4.478-10 10v9.489h-24.213c-5.522 0-10 4.478-10 10v32.937h-14.257c-5.522 0-10 4.478-10 10v69.354h-23.267v-131.528c0-5.522-4.478-10-10-10h-10.454v-41.283c0-5.522-4.478-10-10-10h-43.884v-29.956c0-5.522-4.478-10-10-10s-10 4.478-10 10v29.956h-43.885c-5.522 0-10 4.478-10 10v41.283h-10.453c-5.522 0-10 4.478-10 10v89.434l-104.651 58.358c-3.167 1.766-5.13 5.107-5.13 8.733v234.236h-4.089c-5.522 0-10 4.478-10 10s4.478 10 10 10h451.625c5.522 0 10-4.478 10-10s-4.477-10-10-10zm-101.554-361.523h48.426v22.937h-48.426zm-195.747-70.521h87.769v31.283h-87.769zm-130.235 203.682 89.781-50.065v278.427h-89.781zm109.782-152.399h128.676v121.528h-36.938c-5.522 0-10 4.478-10 10v249.233h-81.737v-380.761zm101.737 380.761v-239.232h128.676v239.232zm148.676 0v-249.232c0-5.522-4.478-10-10-10h-48.471v-59.354h95.404v318.586z"></path>
        <path d="m357.593 290.49h-54.92c-5.522 0-10 4.478-10 10s4.478 10 10 10h54.92c5.522 0 10-4.478 10-10s-4.478-10-10-10z"></path>
        <path d="m357.593 338.419h-54.92c-5.522 0-10 4.478-10 10s4.478 10 10 10h54.92c5.522 0 10-4.478 10-10s-4.478-10-10-10z"></path>
        <path d="m357.593 386.349h-54.92c-5.522 0-10 4.478-10 10s4.478 10 10 10h54.92c5.522 0 10-4.478 10-10s-4.478-10-10-10z"></path>
        <path d="m357.593 434.277h-54.92c-5.522 0-10 4.478-10 10s4.478 10 10 10h54.92c5.522 0 10-4.478 10-10s-4.478-10-10-10z"></path>
    </g>
</svg>