<?xml version="1.0" encoding="UTF-8"?>
<svg id="_Слой_2" data-name="Слой 2" xmlns="http://www.w3.org/2000/svg" viewBox="0 0 178.41 92.82">
  <defs>
    <style>
      .cls-1 {
        fill: #f2956a;
      }
    </style>
  </defs>
  <g id="_Слой_1-2" data-name="Слой 1">
    <g>
      <path class="cls-1" d="M147.38,54.1h-7.51v-23.12h-7.73v23.12h-8.91v7.73h-61.33v-4.72c0-1.7-1.38-3.09-3.09-3.09h-4.6v-23.04h77.96v-7.79H50.7c-2.33,0-4.22,1.89-4.22,4.22v3.57h0v23.04h-12.39c-1.69,0-3.06,1.37-3.06,3.06v.02s0,0,0,0v1.61s0,0,0,0v23.28c0,1.69,1.37,3.06,3.06,3.06h4.99v7.7h7.7v-7.7h92.64v7.7h7.96v-7.49h7.3v-23.39h-7.3v-7.79ZM123.23,69.61v7.67h-61.33v-7.67h61.33ZM54.25,69.61v7.67h-15.5v-15.48h15.5v.02h-.04v7.79h.04ZM146.95,77.28h-14.92v-15.4h14.92v15.4Z"/>
      <path class="cls-1" d="M20.67,69.59h-4.64v-7.86h7.23v-7.77h-7.23v-7.86h7.6v-7.77h-7.6v-8.3h-.11v-2.07c0-1.7-1.38-3.09-3.09-3.09h-1.61c-1.7,0-3.09,1.38-3.09,3.09v8.66c0,.39.08.77.22,1.11v2.77l-2.91-1.68c-1.48-.85-3.36-.35-4.22,1.13l-.81,1.4c-.85,1.48-.35,3.36,1.13,4.22l6.8,3.93v5.6l-2.57-1.48c-1.48-.85-3.36-.35-4.22,1.13l-.81,1.4c-.85,1.48-.35,3.36,1.13,4.22l6.46,3.73v5.49H3.66c-1.7,0-3.09,1.38-3.09,3.09v20.15h23.19v-20.15c0-1.7-1.38-3.09-3.09-3.09ZM8.3,85.21v-7.83h7.73v7.83h-7.73Z"/>
      <polygon class="cls-1" points="169.92 0 169.92 0 162.41 0 162.41 7.79 169.92 7.79 169.92 23.19 162.41 23.19 162.41 7.8 154.14 7.8 154.14 23.19 154.14 30.94 154.14 30.97 162.41 30.97 162.41 92.77 170.14 92.77 170.14 30.97 178.41 30.97 178.41 30.97 178.41 23.19 178.41 0 169.92 0"/>
    </g>
  </g>
</svg>