<!-- icon666.com - MILLIONS OF FREE VECTOR ICONS -->
<svg fill="#fff" xmlns="http://www.w3.org/2000/svg" viewBox="0 0 128 128">
    <g>
        <path d="M121,72.793H104.192l-2.178-16.605a6.77,6.77,0,0,0-6.694-5.873H80.679a6.77,6.77,0,0,0-6.693,5.873L71.808,72.793H56.192L54.014,56.188a6.77,6.77,0,0,0-6.693-5.873H32.679a6.77,6.77,0,0,0-6.693,5.873L23.808,72.793H7a1.75,1.75,0,0,0-1.75,1.75v7.482A1.75,1.75,0,0,0,7,83.775h3.525V121a1.75,1.75,0,0,0,1.75,1.75h103.45a1.75,1.75,0,0,0,1.75-1.75V83.775H121a1.749,1.749,0,0,0,1.75-1.75V74.543A1.749,1.749,0,0,0,121,72.793ZM77.457,56.643a3.258,3.258,0,0,1,3.222-2.828H95.32a3.259,3.259,0,0,1,3.223,2.828l2.118,16.15H75.338Zm-48,0a3.259,3.259,0,0,1,3.222-2.828H47.321a3.26,3.26,0,0,1,3.222,2.828l2.118,16.15H27.338Zm84.518,62.607H14.025V83.775h99.95Zm5.275-38.975H8.75V76.293h110.5Z"></path>
        <path d="M70.181,30.635H80.758a7.448,7.448,0,0,0,14.484,0h10.577a1.75,1.75,0,0,0,1.463-2.711c-.233-.353-5.652-8.377-17.532-11.249V7a1.75,1.75,0,0,0-3.5,0v9.675c-11.881,2.872-17.3,10.9-17.532,11.249a1.75,1.75,0,0,0,1.463,2.711ZM88,32.843a3.949,3.949,0,0,1-3.532-2.208h7.064A3.95,3.95,0,0,1,88,32.843Zm0-13a28.459,28.459,0,0,1,13.964,7.287H74.036A28.459,28.459,0,0,1,88,19.848Z"></path>
        <path d="M22.181,30.635H32.758a7.448,7.448,0,0,0,14.484,0H57.819a1.75,1.75,0,0,0,1.463-2.711c-.232-.353-5.651-8.377-17.532-11.249V7a1.75,1.75,0,0,0-3.5,0v9.675c-11.881,2.872-17.3,10.9-17.532,11.249a1.75,1.75,0,0,0,1.463,2.711ZM40,32.843a3.949,3.949,0,0,1-3.532-2.208h7.064A3.95,3.95,0,0,1,40,32.843Zm0-13a28.464,28.464,0,0,1,13.964,7.287H26.036A28.464,28.464,0,0,1,40,19.848Z"></path>
    </g>
</svg>