<?xml version="1.0" encoding="UTF-8"?>
<svg id="_Слой_2" data-name="Слой 2" xmlns="http://www.w3.org/2000/svg" viewBox="0 0 70.13 89.26">
  <defs>
    <style>
      .cls-1 {
        fill: #f2956a;
      }
    </style>
  </defs>
  <g id="_Слой_1-2" data-name="Слой 1">
    <g>
      <polygon class="cls-1" points="70.13 0 19.13 0 19.13 6.38 12.75 6.38 12.75 12.75 6.38 12.75 6.38 19.13 57.38 19.13 57.38 12.75 19.13 12.75 19.13 6.38 63.76 6.38 63.76 70.14 57.38 70.14 57.38 19.13 51.01 19.13 51.01 82.88 6.38 82.88 6.38 19.13 0 19.13 0 84.11 0 84.11 0 89.26 56.83 89.26 56.83 89.26 57.38 89.26 57.38 76.51 70.13 76.51 70.13 76.51 70.13 76.51 70.13 6.38 70.13 6.38 70.13 0"/>
      <rect class="cls-1" x="12.75" y="51" width="31.73" height="6.38"/>
      <rect class="cls-1" x="12.55" y="63.76" width="31.73" height="6.38"/>
      <rect class="cls-1" x="12.75" y="38.25" width="31.73" height="6.38"/>
      <rect class="cls-1" x="12.35" y="25.5" width="32.13" height="6.38"/>
    </g>
  </g>
</svg>