<?xml version="1.0" encoding="UTF-8"?>
<svg id="_Слой_2" data-name="Слой 2" xmlns="http://www.w3.org/2000/svg" viewBox="0 0 96.59 103.63">
  <defs>
    <style>
      .cls-1 {
        fill: #f2956a;
      }
    </style>
  </defs>
  <g id="_Слой_1-2" data-name="Слой 1">
    <g>
      <rect class="cls-1" x="29.79" y="37.01" width="37.74" height="7.4"/>
      <rect class="cls-1" x="37.19" y="66.62" width="22.21" height="7.4"/>
      <rect class="cls-1" x="14.62" y="59.22" width="66.98" height="7.4"/>
      <rect class="cls-1" x="22.02" y="44.41" width="7.77" height="14.8"/>
      <path class="cls-1" d="M91.58,0H5C2.24,0,0,2.24,0,5v91.22h7.77V7.4h81.06v88.82h-36.74v7.4h36.83v-7.4h7.67V5c0-2.76-2.24-5-5-5Z"/>
      <polygon class="cls-1" points="44.59 103.62 44.59 96.22 59.21 96.22 59.21 88.82 37.01 88.82 37.01 96.22 7.77 96.22 7.77 103.62 44.59 103.62"/>
      <polygon class="cls-1" points="74.38 88.82 74.38 81.42 81.78 81.42 81.78 81.42 81.79 81.42 81.79 74.02 81.78 74.02 81.78 66.62 74.02 66.62 74.02 74.02 66.62 74.02 29.79 74.02 29.79 74.02 22.57 74.02 22.57 66.62 14.8 66.62 14.8 74.02 14.8 81.42 14.8 81.42 22.02 81.42 22.02 88.82 29.79 88.82 29.79 81.42 66.62 81.42 66.62 88.82 74.38 88.82"/>
      <rect class="cls-1" x="66.62" y="44.41" width="7.77" height="14.8"/>
    </g>
  </g>
</svg>