<?xml version="1.0" encoding="UTF-8"?>
<svg id="_Слой_2" data-name="Слой 2" xmlns="http://www.w3.org/2000/svg" viewBox="0 0 76.3 68.97">
  <defs>
    <style>
      .cls-1 {
        fill: #f2956a;
      }
    </style>
  </defs>
  <g id="_Слой_1-2" data-name="Слой 1">
    <g>
      <polygon class="cls-1" points="76.3 23.19 75.75 23.19 76.16 22.49 38.46 .72 38.46 0 7.85 0 7.85 7.65 35.16 7.65 61.86 23.07 38.25 23.07 38.25 28.42 38.15 28.42 38.15 44.07 15.3 30.88 15.3 7.77 7.65 7.77 7.65 38.37 12.97 38.37 26.22 46.02 22.95 46.02 22.95 53.67 53.55 53.67 53.55 46.02 45.8 46.02 45.8 30.72 53.55 30.72 53.55 38.37 61.21 38.37 61.21 30.72 68.65 30.72 68.65 38.37 61.21 38.37 61.21 46.02 53.56 46.02 53.56 53.67 61.21 53.67 61.21 46.02 68.86 46.02 68.86 38.49 76.3 38.49 76.3 23.19"/>
      <polygon class="cls-1" points="15.3 46.02 7.65 46.02 7.65 61.32 0 61.32 0 68.97 30.6 68.97 30.6 61.32 15.3 61.32 15.3 46.02"/>
    </g>
  </g>
</svg>