<?xml version="1.0" encoding="UTF-8"?>
<svg id="_Слой_2" data-name="Слой 2" xmlns="http://www.w3.org/2000/svg" viewBox="0 0 81.52 103.76">
  <defs>
    <style>
      .cls-1 {
        fill: #f2956a;
      }
    </style>
  </defs>
  <g id="_Слой_1-2" data-name="Слой 1">
    <g>
      <polygon class="cls-1" points="74.11 73.79 66.7 73.79 66.7 96.02 51.88 96.02 51.88 88.61 44.47 88.61 44.47 81.2 37.06 81.2 37.06 88.61 44.47 88.61 44.47 96.02 44.47 96.02 44.47 103.43 66.7 103.43 66.7 103.76 74.11 103.76 74.11 103.43 74.11 103.43 74.11 96.02 74.11 96.02 74.11 73.79"/>
      <rect class="cls-1" x="29.65" y="66.54" width="7.41" height="7.41"/>
      <rect class="cls-1" x="22.23" y="14.82" width="7.41" height="7.41"/>
      <rect class="cls-1" x="44.47" y="7.41" width="7.41" height="7.41"/>
      <rect class="cls-1" x="37.06" width="7.41" height="7.41"/>
      <rect class="cls-1" x="29.65" y="7.41" width="7.41" height="7.41"/>
      <rect class="cls-1" x="37.06" y="37.06" width="7.41" height="7.41"/>
      <rect class="cls-1" x="51.88" y="37.06" width="7.41" height="7.41"/>
      <rect class="cls-1" x="44.47" y="66.54" width="7.41" height="7.41"/>
      <rect class="cls-1" x="37.06" y="22.23" width="7.41" height="7.41"/>
      <path class="cls-1" d="M79.3,29.39v-.04h-12.6v-7.12h-7.41v-7.41h-7.41v7.41h7.41v7.41H22.23v-7.41h-7.41v7.16H0v29.9h2.78s4.63,0,4.63,0v36.73h0v7.41h29.65v-7.41h0v-7.41h-7.41v7.41h-14.82v-36.73h51.88v14.5h7.41v-14.5h7.41v-14.82h0v-15.08h-2.22ZM74.11,51.55h-5.86s-53.43,0-53.43,0h-7.41v-14.5h14.82v7.16h7.41v-7.16h44.47v7.41h0v7.09Z"/>
    </g>
  </g>
</svg>