<!-- icon666.com - MILLIONS OF FREE VECTOR ICONS -->
<svg fill="#fff" enable-background="new 0 0 512 512" viewBox="0 0 512 512" xmlns="http://www.w3.org/2000/svg">
    <g id="_x30_3_Community">
        <g>
            <path d="m389.284 278.743c-12.805 0-24.881 3.059-35.665 8.36l-45.796-72.586c18.116-15.085 29.407-37.574 29.407-62.494 0-44.792-36.438-81.232-81.23-81.232s-81.234 36.44-81.234 81.232c0 24.033 10.599 46.835 29.407 62.494l-45.796 72.586c-10.784-5.301-22.86-8.36-35.665-8.36-44.792 0-81.23 36.44-81.23 81.232 0 44.551 36.164 81.234 81.23 81.234 44.687 0 81.234-36.374 81.234-81.234 0-1.197-.128-2.362-.179-3.546h104.463c-.052 1.184-.18 2.349-.18 3.546 0 44.596 36.262 81.234 81.234 81.234 45.084 0 81.234-36.757 81.234-81.234 0-44.792-36.442-81.232-81.234-81.232zm-188.206-79.832c-10.805-12.637-17.374-28.998-17.374-46.888 0-39.862 32.432-72.294 72.296-72.294 39.86 0 72.292 32.432 72.292 72.294 0 17.89-6.569 34.251-17.374 46.888-8.048-13.999-21.053-24.288-36.205-28.98 8.04-5.822 13.3-15.259 13.3-25.923 0-17.654-14.359-32.017-32.013-32.017s-32.017 14.363-32.017 32.017c0 10.664 5.261 20.102 13.303 25.924-15.153 4.691-28.16 14.98-36.208 28.979zm54.922-22.886c20.461 0 39.119 11.493 48.407 29.535-14.039 12.713-31.7 18.756-48.407 18.756-17.207 0-34.523-6.181-48.411-18.757 9.287-18.042 27.95-29.534 48.411-29.534zm-23.079-32.017c0-12.727 10.352-23.079 23.079-23.079 12.722 0 23.074 10.352 23.074 23.079s-10.352 23.079-23.074 23.079c-12.727 0-23.079-10.353-23.079-23.079zm-110.209 288.263c-17.424 0-34.634-6.292-48.408-18.758 9.283-18.044 27.946-29.536 48.408-29.536s39.124 11.493 48.412 29.536c-14.069 12.742-31.517 18.758-48.412 18.758zm-23.079-80.311c0-12.724 10.352-23.077 23.079-23.077s23.079 10.352 23.079 23.077c0 12.727-10.352 23.079-23.079 23.079s-23.079-10.353-23.079-23.079zm78.002 54.904c-8.048-13.999-21.055-24.288-36.209-28.98 8.042-5.822 13.303-15.26 13.303-25.924 0-17.654-14.363-32.015-32.017-32.015s-32.017 14.361-32.017 32.015c0 10.664 5.262 20.101 13.303 25.923-15.155 4.692-28.159 14.982-36.205 28.981-10.804-12.637-17.373-28.998-17.373-46.889 0-39.862 32.432-72.294 72.292-72.294 40.142 0 72.296 32.712 72.296 72.294 0 17.891-6.569 34.252-17.373 46.889zm131.37-59.373h-106.01c-3.425-22.152-17.05-43.579-36.753-56.104l45.103-71.486c12.455 8.262 27.573 13.109 43.646 13.306 15.665.201 31.727-4.086 45.659-13.306l45.103 71.486c-19.04 12.112-33.173 32.953-36.748 56.104zm80.279 84.78c-17.214 0-34.66-6.297-48.412-18.758 9.288-18.043 27.95-29.536 48.412-29.536s39.124 11.493 48.412 29.536c-13.937 12.622-31.325 18.758-48.412 18.758zm-23.079-80.311c0-12.724 10.352-23.077 23.079-23.077s23.079 10.352 23.079 23.077c0 12.727-10.352 23.079-23.079 23.079s-23.079-10.353-23.079-23.079zm78.002 54.904c-8.048-13.999-21.055-24.288-36.209-28.98 8.042-5.822 13.303-15.26 13.303-25.924 0-17.654-14.363-32.015-32.017-32.015s-32.017 14.361-32.017 32.015c0 10.664 5.261 20.102 13.303 25.924-15.154 4.692-28.161 14.981-36.209 28.98-10.805-12.637-17.373-28.998-17.373-46.889 0-39.515 32.155-72.294 72.296-72.294 39.864 0 72.296 32.432 72.296 72.294 0 17.891-6.568 34.252-17.373 46.889z"></path>
        </g>
    </g>
</svg>