<?xml version="1.0" encoding="UTF-8"?>
<svg id="_Слой_2" data-name="Слой 2" xmlns="http://www.w3.org/2000/svg" viewBox="0 0 133.73 94.44">
  <defs>
    <style>
      .cls-1 {
        fill-rule: evenodd;
      }

      .cls-1, .cls-2 {
        fill: #f2956a;
      }
    </style>
  </defs>
  <g id="_Слой_1-2" data-name="Слой 1">
    <g>
      <rect class="cls-2" x="31.47" y="78.7" width="7.87" height="15.68"/>
      <rect class="cls-2" y="78.7" width="7.87" height="15.73"/>
      <polygon class="cls-1" points="23.57 62.97 15.73 62.97 15.73 55.1 23.57 55.1 23.57 62.97 31.44 62.97 31.44 55.1 31.46 55.1 31.46 47.24 23.6 47.24 23.6 55.1 23.6 55.1 23.6 47.24 15.73 47.24 7.87 47.24 7.87 55.1 7.87 62.97 15.71 62.97 15.71 70.84 0 70.84 0 78.7 39.33 78.7 39.33 70.84 23.57 70.84 23.57 62.97"/>
      <rect class="cls-2" x="78.67" y="78.7" width="7.87" height="15.68"/>
      <rect class="cls-2" x="47.2" y="78.7" width="7.87" height="15.73"/>
      <polygon class="cls-1" points="70.77 62.97 62.93 62.97 62.93 55.1 70.77 55.1 70.77 62.97 78.64 62.97 78.64 55.1 78.66 55.1 78.66 47.24 70.8 47.24 70.8 55.1 70.8 55.1 70.8 47.24 62.93 47.24 62.93 47.24 55.07 47.24 55.07 55.1 55.07 62.97 62.91 62.97 62.91 70.84 47.2 70.84 47.2 78.7 86.53 78.7 86.53 70.84 70.77 70.84 70.77 62.97"/>
      <path class="cls-1" d="M31.47,39.37h78.64v-.04h.03v.04h7.87v-7.87h-7.87V0h-7.87v.04H23.6v39.33h7.87ZM102.26,7.91v23.6H31.47V7.91h70.8Z"/>
      <rect class="cls-2" x="125.86" y="78.7" width="7.87" height="15.68"/>
      <rect class="cls-2" x="94.4" y="78.7" width="7.87" height="15.73"/>
      <rect class="cls-2" x="78.66" y="15.77" width="7.87" height="7.87"/>
      <rect class="cls-2" x="62.91" y="15.73" width="7.87" height="7.87"/>
      <rect class="cls-2" x="47.2" y="15.77" width="7.87" height="7.87"/>
      <polygon class="cls-1" points="117.97 70.83 117.97 62.97 110.13 62.97 110.13 55.1 117.97 55.1 117.97 62.97 125.83 62.97 125.83 55.1 125.86 55.1 125.86 47.24 118 47.24 118 55.1 117.99 55.1 117.99 47.24 110.13 47.24 102.26 47.24 102.26 55.1 102.26 62.97 110.1 62.97 110.1 70.83 94.4 70.83 94.4 78.7 133.73 78.7 133.73 70.83 117.97 70.83"/>
    </g>
  </g>
</svg>