<?xml version="1.0" encoding="UTF-8"?>
<svg id="_Слой_2" data-name="Слой 2" xmlns="http://www.w3.org/2000/svg" viewBox="0 0 148.49 109.97">
  <defs>
    <style>
      .cls-1 {
        fill: #f2956a;
      }
    </style>
  </defs>
  <g id="_Слой_1-2" data-name="Слой 1">
    <g>
      <polygon class="cls-1" points="101.54 27.85 125.01 27.85 125.01 47.23 132.84 47.23 132.84 .34 125.01 .34 125.01 19.71 101.54 19.71 101.54 0 93.72 0 93.72 46.89 101.54 46.89 101.54 27.85"/>
      <rect class="cls-1" x="101.54" y="70.77" width="7.82" height="7.82"/>
      <rect class="cls-1" x="117.19" y="70.63" width="7.82" height="7.82"/>
      <rect class="cls-1" x="101.54" y="86.37" width="7.82" height="7.82"/>
      <rect class="cls-1" x="117.19" y="86.23" width="7.82" height="7.82"/>
      <path class="cls-1" d="M140.66,101.83v-46.89h-7.82v.08h-39.12v-.08h-7.82v46.89h0V31.6h0v-8.14h-23.31v-7.82h-31.45v-7.52h-7.82v7.52h0V.3h-7.82v15.49h.16s-7.82.01-7.82.01v86.03H0v8.14h148.49v-8.14h-7.83ZM15.65,78.6v-8.15h23.55s7.61,0,7.61,0h0s7.96,0,7.96,0v8.15H15.65ZM46.78,39.16h0s7.99,0,7.99,0v8.17H15.65v-8.17h23.52s7.61,0,7.61,0ZM78.07,70.63h-15.49v-.17h0v-7.61h0v-.03h15.49v7.81ZM78.07,54.68h-15.49v-7.37h15.49v7.37ZM39.2,54.94h0s7.61,0,7.61,0h0s7.96,0,7.96,0v7.91H15.65v-7.91h23.55ZM62.58,78.77h15.49v23.07h-15.49v-23.07ZM78.07,39.18h-15.49v-7.58h15.49v7.58ZM54.76,23.78v7.77H15.65v-7.77h39.12ZM15.65,86.21h23.55s7.61,0,7.61,0h0s7.96,0,7.96,0v15.62H15.65v-15.62ZM93.72,101.83v-39.2h39.12v39.2h-39.12Z"/>
    </g>
  </g>
</svg>