<svg width="760" height="1628" viewBox="0 0 760 1628" fill="none" xmlns="http://www.w3.org/2000/svg">
    <rect width="760" height="1628" fill="#545860"/>
    <rect x="49.5" y="49.5" width="310" height="270" fill="#524749" stroke="black" stroke-width="3"/>
    <rect x="49.5" y="359.5" width="310" height="270" fill="#524749" stroke="black" stroke-width="3"/>
    <rect x="399.5" y="359.5" width="310" height="270" fill="#524749" stroke="black" stroke-width="3"/>
    <rect x="410" y="369" width="87" height="251" fill="#60708C" stroke="black" stroke-width="2"/>
    <rect x="557" y="369" width="99" height="251" fill="#60708C" stroke="black" stroke-width="2"/>
    <rect x="49.5" y="669.5" width="310" height="270" fill="#524749" stroke="black" stroke-width="3"/>
    <rect x="399.5" y="669.5" width="310" height="270" fill="#524749" stroke="black" stroke-width="3"/>
    <rect x="468" y="679" width="87" height="251" fill="#60708C" stroke="black" stroke-width="2"/>
    <rect x="557" y="679" width="99" height="251" fill="#60708C" stroke="black" stroke-width="2"/>
    <rect x="399.5" y="48.5" width="310" height="270" fill="#524749" stroke="black" stroke-width="3"/>
    <rect x="410" y="59" width="144" height="251" fill="#60708C" stroke="black" stroke-width="2"/>
    <rect x="556" y="58" width="58" height="251" fill="#2F3844" stroke="black" stroke-width="2"/>
    <rect x="49.5" y="980.5" width="310" height="270" fill="#524749" stroke="black" stroke-width="3"/>
    <rect x="399.5" y="979.5" width="310" height="270" fill="#524749" stroke="black" stroke-width="3"/>
    <rect x="410" y="990" width="144" height="251" fill="#60708C" stroke="black" stroke-width="2"/>

    <g class="window_group">
        <rect class="window" x="206" y="369" width="144" height="251" fill="#60708C" stroke="black" stroke-width="2"/>

        <rect class="window" x="160" y="369" width="44" height="251" fill="#233346" stroke="black" stroke-width="2"/>

        <rect class="window" x="118" y="680" width="144" height="251" fill="#60708C" stroke="black" stroke-width="2"/>

        <rect class="window" x="301" y="679" width="44" height="251" fill="#233346" stroke="black" stroke-width="2"/>

        <rect class="window" x="206" y="58" width="144" height="251" fill="#60708C" stroke="black" stroke-width="2"/>
        <rect class="window" x="88" y="58" width="58" height="251" fill="#60708C" stroke="black" stroke-width="2"/>

        <rect class="window" x="206" y="989" width="144" height="251" fill="#60708C" stroke="black" stroke-width="2"/>
        <rect class="window" x="88" y="989" width="58" height="251" fill="#60708C" stroke="black" stroke-width="2"/>
    </g>



    <rect x="556" y="989" width="58" height="251" fill="#2F3844" stroke="black" stroke-width="2"/>
    <rect x="47" y="1270" width="664" height="39" fill="#2C3037"/>
    <rect x="48" y="1327" width="663" height="301" fill="#233346"/>

    <style>

        .window {
        transition: 1s;
        }

        .window_group:hover .window {
            fill: #FFEF4A
        }

    </style>

</svg>
