<svg width="1805" height="1628" viewBox="0 0 1805 1628" fill="none" xmlns="http://www.w3.org/2000/svg">
    <rect width="1805" height="1628" fill="#545860"/>
    <rect x="51.5" y="48.5" width="310" height="270" fill="#524749" stroke="black" stroke-width="3"/>
    <rect x="51.5" y="358.5" width="310" height="270" fill="#524749" stroke="black" stroke-width="3"/>
    <rect x="401.5" y="47.5" width="310" height="270" fill="#524749" stroke="black" stroke-width="3"/>
    <g class="alpha_group">
        <rect class="room_alpha" x="401.5" y="358.5" width="310" height="270" fill="#524749" stroke="black" stroke-width="3"/>
        <rect class="window_alpha" x="412" y="368" width="87" height="251" fill="#60708C" stroke="black" stroke-width="2"/>
        <rect class="window_alpha" x="559" y="368" width="99" height="251" fill="#60708C" stroke="black" stroke-width="2"/>
    </g>

    <g class="gamma_group">
        <rect class="room_gamma" x="1101.5" y="47.5" width="310" height="270" fill="#524749" stroke="black" stroke-width="3"/>
        <rect class="window_gamma" x="1298" y="58" width="99" height="251" fill="#60708C" stroke="black" stroke-width="2"/>
        <rect class="window_gamma" x="1112" y="57" width="58" height="251" fill="#233346" stroke="black" stroke-width="2"/>

    </g>

    <g class="omega_group">
        <rect class="room_omega" x="751.5" y="978.5" width="310" height="270" fill="#524749" stroke="black" stroke-width="3"/>
        <rect class="window_omega" x="762" y="988" width="99" height="251" fill="#60708C" stroke="black" stroke-width="2"/>
        <rect class="window_omega" x="960" y="989" width="58" height="251" fill="#60708C" stroke="black" stroke-width="2"/>

    </g>
    <rect x="751.5" y="358.5" width="310" height="270" fill="#524749" stroke="black" stroke-width="3"/>
    <rect x="1101.5" y="358.5" width="310" height="270" fill="#524749" stroke="black" stroke-width="3"/>
    <rect x="1451.5" y="358.5" width="310" height="270" fill="#524749" stroke="black" stroke-width="3"/>
    <rect x="751.5" y="47.5" width="310" height="270" fill="#524749" stroke="black" stroke-width="3"/>
    <rect x="1451.5" y="47.5" width="310" height="270" fill="#524749" stroke="black" stroke-width="3"/>
    <rect x="208" y="57" width="144" height="251" fill="#60708C" stroke="black" stroke-width="2"/>
    <rect x="208" y="368" width="144" height="251" fill="#60708C" stroke="black" stroke-width="2"/>
    <rect x="412" y="58" width="144" height="251" fill="#60708C" stroke="black" stroke-width="2"/>
    <rect x="1462" y="57" width="144" height="251" fill="#233346" stroke="black" stroke-width="2"/>
    <rect x="762" y="57" width="99" height="251" fill="#60708C" stroke="black" stroke-width="2"/>
    <rect x="761" y="368" width="99" height="251" fill="#233346" stroke="black" stroke-width="2"/>
    <rect x="1000" y="368" width="48" height="251" fill="#60708C" stroke="black" stroke-width="2"/>
    <rect x="1655" y="57" width="99" height="251" fill="#60708C" stroke="black" stroke-width="2"/>
    <rect x="1653" y="368" width="99" height="251" fill="#60708C" stroke="black" stroke-width="2"/>
    <rect x="1207" y="368" width="99" height="251" fill="#60708C" stroke="black" stroke-width="2"/>
    <rect x="162" y="368" width="44" height="251" fill="#233346" stroke="black" stroke-width="2"/>
    <rect x="1339" y="368" width="58" height="251" fill="#60708C" stroke="black" stroke-width="2"/>
    <rect x="1535" y="368" width="58" height="251" fill="#233346" stroke="black" stroke-width="2"/>
    <rect x="51.5" y="668.5" width="310" height="270" fill="#524749" stroke="black" stroke-width="3"/>
    <rect x="401.5" y="668.5" width="310" height="270" fill="#524749" stroke="black" stroke-width="3"/>
    <rect x="751.5" y="668.5" width="310" height="270" fill="#524749" stroke="black" stroke-width="3"/>
    <rect x="1101.5" y="668.5" width="310" height="270" fill="#524749" stroke="black" stroke-width="3"/>
    <rect x="1451.5" y="668.5" width="310" height="270" fill="#524749" stroke="black" stroke-width="3"/>
    <rect x="120" y="679" width="144" height="251" fill="#60708C" stroke="black" stroke-width="2"/>
    <rect x="470" y="678" width="87" height="251" fill="#60708C" stroke="black" stroke-width="2"/>
    <rect x="924" y="679" width="99" height="251" fill="#233346" stroke="black" stroke-width="2"/>
    <rect x="876" y="679" width="48" height="251" fill="#60708C" stroke="black" stroke-width="2"/>
    <rect x="559" y="678" width="99" height="251" fill="#60708C" stroke="black" stroke-width="2"/>
    <rect x="1653" y="678" width="99" height="251" fill="#60708C" stroke="black" stroke-width="2"/>
    <rect x="1207" y="678" width="99" height="251" fill="#60708C" stroke="black" stroke-width="2"/>
    <rect x="303" y="678" width="44" height="251" fill="#233346" stroke="black" stroke-width="2"/>
    <rect x="1308" y="679" width="58" height="251" fill="#60708C" stroke="black" stroke-width="2"/>
    <rect x="1593" y="678" width="58" height="251" fill="#233346" stroke="black" stroke-width="2"/>
    <rect x="90" y="57" width="58" height="251" fill="#60708C" stroke="black" stroke-width="2"/>
    <rect x="960" y="58" width="58" height="251" fill="#60708C" stroke="black" stroke-width="2"/>
    <rect x="51.5" y="979.5" width="310" height="270" fill="#524749" stroke="black" stroke-width="3"/>
    <rect x="401.5" y="978.5" width="310" height="270" fill="#524749" stroke="black" stroke-width="3"/>
    <rect x="1101.5" y="978.5" width="310" height="270" fill="#524749" stroke="black" stroke-width="3"/>
    <rect x="1451.5" y="978.5" width="310" height="270" fill="#524749" stroke="black" stroke-width="3"/>
    <rect x="208" y="988" width="144" height="251" fill="#60708C" stroke="black" stroke-width="2"/>
    <rect x="412" y="989" width="144" height="251" fill="#60708C" stroke="black" stroke-width="2"/>
    <rect x="1462" y="988" width="144" height="251" fill="#233346" stroke="black" stroke-width="2"/>
    <rect x="1655" y="988" width="99" height="251" fill="#60708C" stroke="black" stroke-width="2"/>
    <rect x="1298" y="989" width="99" height="251" fill="#60708C" stroke="black" stroke-width="2"/>
    <rect x="90" y="988" width="58" height="251" fill="#60708C" stroke="black" stroke-width="2"/>
    <rect x="1112" y="988" width="58" height="251" fill="#233346" stroke="black" stroke-width="2"/>
    <rect x="558" y="988" width="58" height="251" fill="#2F3844" stroke="black" stroke-width="2"/>
    <rect x="50" y="1270" width="1713" height="39" fill="#2C3037"/>
    <rect x="742" y="1319" width="238" height="309" fill="#233346"/>
    <rect x="1019" y="1319" width="744" height="309" fill="#233346"/>
    <rect x="50" y="1319" width="650" height="309" fill="#233346"/>

    <path d="M718.679 679.657H885V891H518V679.657H685.321L702 659L718.679 679.657Z" fill="white"/>
    <path d="M581.276 717.656V728.276H595.64V717.656H598.952V743H595.64V731.372H581.276V743H577.964V717.656H581.276ZM612.374 723.452H613.094C619.682 723.452 622.598 726.404 622.598 733.136V733.964C622.598 740.624 619.682 743.576 613.094 743.576H612.374C605.858 743.576 602.942 740.624 602.942 733.964V733.136C602.942 726.404 605.858 723.452 612.374 723.452ZM612.518 740.552H613.022C616.226 740.552 617.99 739.76 618.782 737.852C619.178 736.88 619.358 735.548 619.358 733.856V733.316C619.358 729.824 618.638 727.988 616.802 727.124C615.902 726.692 614.642 726.476 613.022 726.476H612.518C609.314 726.476 607.586 727.268 606.794 729.212C606.398 730.184 606.182 731.552 606.182 733.316V733.856C606.182 737.276 606.902 739.076 608.738 739.904C609.638 740.336 610.898 740.552 612.518 740.552ZM629.897 725.54H629.357V743H626.189V724.028H632.669L637.277 741.488H637.817L641.957 724.028H648.365V743H645.197V725.54H644.657L640.517 743H634.505L629.897 725.54ZM662.174 743.576H661.454C654.866 743.576 651.95 740.624 651.95 733.964V733.136C651.95 726.404 654.758 723.452 661.094 723.452H661.814C668.186 723.452 671.03 726.476 671.03 733.136V734.468H655.118C655.118 739.148 656.846 740.552 661.598 740.552H662.102C665.99 740.552 667.286 739.796 668.006 737.06H671.318C670.49 741.56 667.682 743.576 662.174 743.576ZM667.79 731.66C667.466 727.88 665.774 726.476 661.742 726.476H661.238C657.098 726.476 655.514 727.808 655.19 731.66H667.79ZM678.588 739.508H678.084V750.92H674.916V724.028H678.084V727.412H678.588C679.92 724.784 682.116 723.452 685.176 723.452H685.788C691.404 723.452 693.96 726.44 693.96 733.172V733.784C693.96 740.552 691.404 743.576 685.788 743.576H685.176C681.828 743.576 679.632 742.208 678.588 739.508ZM684.096 740.588H684.492C686.076 740.588 687.3 740.372 688.2 739.94C689.964 739.076 690.72 737.168 690.72 733.712V733.28C690.72 729.788 690.036 727.916 688.236 727.052C687.336 726.62 686.076 726.404 684.492 726.404H684.132C679.92 726.404 678.084 729.14 678.084 733.28V733.712C678.084 735.62 678.588 737.24 679.632 738.572C680.64 739.904 682.116 740.588 684.096 740.588ZM711.603 717.656H717.867L725.751 743H722.367L720.171 735.944H709.191L706.995 743H703.683L711.603 717.656ZM719.235 732.992L715.059 719.564H714.339L710.127 732.992H719.235ZM749.514 743H746.202V720.752H734.862C734.862 726.368 734.718 730.76 734.43 733.964C733.854 740.336 732.63 743 730.326 743H727.554V739.904H728.778C730.542 739.904 731.262 737.204 731.514 731.192C731.622 728.204 731.694 723.668 731.694 717.656H749.514V743ZM757.584 717.656V727.304H765.576C770.796 727.304 773.172 729.536 773.172 734.54V735.764C773.172 740.768 770.796 743 765.576 743H754.272V717.656H757.584ZM765.036 739.904C768.636 739.904 769.716 738.86 769.716 735.404V734.936C769.716 731.48 768.636 730.4 765.036 730.4H757.584V739.904H765.036ZM776.056 732.092V728.564C776.056 722.66 778.936 720.104 786.1 720.104H787.864V717.08H791.032V720.104H792.76C799.924 720.104 802.84 722.66 802.84 728.564V732.092C802.84 737.996 799.924 740.552 792.76 740.552H791.032V743.576H787.864V740.552H786.1C778.936 740.552 776.056 737.996 776.056 732.092ZM791.968 737.744C797.728 737.744 799.564 736.376 799.564 732.128V728.564C799.564 724.244 797.728 722.912 791.968 722.912H791.032V737.744H791.968ZM786.964 737.744H787.864V722.912H786.964C783.076 722.912 781.024 723.56 780.052 725.18C779.584 726.008 779.332 727.124 779.332 728.564V732.128C779.332 734.972 780.232 736.52 782.428 737.204C783.508 737.564 785.02 737.744 786.964 737.744ZM812.361 717.656H818.625L826.509 743H823.125L820.929 735.944H809.949L807.753 743H804.441L812.361 717.656ZM819.993 732.992L815.817 719.564H815.097L810.885 732.992H819.993Z" fill="black"/>
    <path d="M550.295 823.384H549.791C544.679 823.384 542.399 820.792 542.399 815.008V814.096C542.399 808.264 544.679 805.72 549.791 805.72H550.295C554.831 805.72 557.087 807.64 557.591 812.08H555.263C554.975 809.944 554.303 808.792 552.935 808.264C552.239 808 551.327 807.88 550.175 807.88H549.935C547.271 807.88 545.855 808.624 545.207 810.448C544.871 811.36 544.703 812.632 544.703 814.24V814.864C544.703 816.472 544.871 817.744 545.207 818.656C545.855 820.48 547.271 821.224 549.935 821.224H550.175C552.503 821.224 553.823 820.744 554.543 819.496C554.903 818.896 555.143 818.032 555.263 816.928H557.591C557.087 821.44 554.879 823.384 550.295 823.384ZM571.119 812.32H566.127V823H564.015V812.32H559.023V810.352H571.119V812.32ZM572.678 819.4C572.678 816.76 574.214 815.44 577.262 815.44H582.446C582.446 812.8 581.534 811.936 578.894 811.936H578.51C575.99 811.936 575.054 812.632 575.054 814.552H573.062C573.062 811.312 574.598 809.968 578.462 809.968H578.894C582.83 809.968 584.582 811.744 584.582 815.8V820.936H585.566V823H583.886C583.478 823 583.19 822.928 582.998 822.808C582.59 822.568 582.446 822.04 582.446 820.864H582.086C581.582 822.688 580.358 823.384 577.886 823.384H577.334C574.238 823.384 572.678 822.112 572.678 819.4ZM577.478 821.416H577.91C581.15 821.416 582.446 820.384 582.446 817.432V817.288H577.742C575.558 817.288 574.814 817.792 574.814 819.304C574.814 820.864 575.63 821.416 577.478 821.416ZM589.514 815.416H597.098V810.352H599.21V823H597.098V817.384H589.514V823H587.402V810.352H589.514V815.416ZM615.64 821.032V826.288H613.672V823H602.728V826.288H600.76V821.032H602.416C602.752 820.048 602.992 819.16 603.16 818.32C603.328 817.504 603.424 816.496 603.496 815.32C603.568 814.144 603.592 812.488 603.592 810.352H613.672V821.032H615.64ZM611.56 821.032V812.272H605.608C605.608 814.216 605.512 815.848 605.32 817.192C605.128 818.56 604.864 819.832 604.504 821.032H611.56ZM617.232 819.4C617.232 816.76 618.768 815.44 621.816 815.44H627C627 812.8 626.088 811.936 623.448 811.936H623.064C620.544 811.936 619.608 812.632 619.608 814.552H617.616C617.616 811.312 619.152 809.968 623.016 809.968H623.448C627.384 809.968 629.136 811.744 629.136 815.8V820.936H630.12V823H628.44C628.032 823 627.744 822.928 627.552 822.808C627.144 822.568 627 822.04 627 820.864H626.64C626.136 822.688 624.912 823.384 622.44 823.384H621.888C618.792 823.384 617.232 822.112 617.232 819.4ZM622.032 821.416H622.464C625.704 821.416 627 820.384 627 817.432V817.288H622.296C620.112 817.288 619.368 817.792 619.368 819.304C619.368 820.864 620.184 821.416 622.032 821.416ZM634.405 820.672H634.069V828.28H631.957V810.352H634.069V812.608H634.405C635.293 810.856 636.757 809.968 638.797 809.968H639.205C642.949 809.968 644.653 811.96 644.653 816.448V816.856C644.653 821.368 642.949 823.384 639.205 823.384H638.797C636.565 823.384 635.101 822.472 634.405 820.672ZM638.077 821.392H638.341C639.397 821.392 640.213 821.248 640.813 820.96C641.989 820.384 642.493 819.112 642.493 816.808V816.52C642.493 814.192 642.037 812.944 640.837 812.368C640.237 812.08 639.397 811.936 638.341 811.936H638.101C635.293 811.936 634.069 813.76 634.069 816.52V816.808C634.069 818.08 634.405 819.16 635.101 820.048C635.773 820.936 636.757 821.392 638.077 821.392ZM657.838 812.32H652.846V823H650.734V812.32H645.742V810.352H657.838V812.32ZM661.748 815.416H669.332V810.352H671.444V823H669.332V817.384H661.748V823H659.636V810.352H661.748V815.416ZM680.122 809.968H680.602C684.994 809.968 686.938 811.936 686.938 816.424V816.976C686.938 821.416 684.994 823.384 680.602 823.384H680.122C675.778 823.384 673.834 821.416 673.834 816.976V816.424C673.834 811.936 675.778 809.968 680.122 809.968ZM680.218 821.368H680.554C682.69 821.368 683.866 820.84 684.394 819.568C684.658 818.92 684.778 818.032 684.778 816.904V816.544C684.778 814.216 684.298 812.992 683.074 812.416C682.474 812.128 681.634 811.984 680.554 811.984H680.218C678.082 811.984 676.93 812.512 676.402 813.808C676.138 814.456 675.994 815.368 675.994 816.544V816.904C675.994 819.184 676.474 820.384 677.698 820.936C678.298 821.224 679.138 821.368 680.218 821.368ZM695.908 823.384H695.428C691.036 823.384 689.092 821.416 689.092 816.976V816.424C689.092 811.936 690.964 809.968 695.188 809.968H695.668C699.916 809.968 701.812 811.984 701.812 816.424V817.312H691.204C691.204 820.432 692.356 821.368 695.524 821.368H695.86C698.452 821.368 699.316 820.864 699.796 819.04H702.004C701.452 822.04 699.58 823.384 695.908 823.384ZM699.652 815.44C699.436 812.92 698.308 811.984 695.62 811.984H695.284C692.524 811.984 691.468 812.872 691.252 815.44H699.652ZM711.655 820.672H711.319V828.28H709.207V810.352H711.319V812.608H711.655C712.543 810.856 714.007 809.968 716.047 809.968H716.455C720.199 809.968 721.903 811.96 721.903 816.448V816.856C721.903 821.368 720.199 823.384 716.455 823.384H716.047C713.815 823.384 712.351 822.472 711.655 820.672ZM715.327 821.392H715.591C716.647 821.392 717.463 821.248 718.063 820.96C719.239 820.384 719.743 819.112 719.743 816.808V816.52C719.743 814.192 719.287 812.944 718.087 812.368C717.487 812.08 716.647 811.936 715.591 811.936H715.351C712.543 811.936 711.319 813.76 711.319 816.52V816.808C711.319 818.08 711.655 819.16 712.351 820.048C713.023 820.936 714.007 821.392 715.327 821.392ZM724.06 819.4C724.06 816.76 725.596 815.44 728.644 815.44H733.828C733.828 812.8 732.916 811.936 730.276 811.936H729.892C727.372 811.936 726.436 812.632 726.436 814.552H724.444C724.444 811.312 725.98 809.968 729.844 809.968H730.276C734.212 809.968 735.964 811.744 735.964 815.8V820.936H736.948V823H735.268C734.86 823 734.572 822.928 734.38 822.808C733.972 822.568 733.828 822.04 733.828 820.864H733.468C732.964 822.688 731.74 823.384 729.268 823.384H728.716C725.62 823.384 724.06 822.112 724.06 819.4ZM728.86 821.416H729.292C732.532 821.416 733.828 820.384 733.828 817.432V817.288H729.124C726.94 817.288 726.196 817.792 726.196 819.304C726.196 820.864 727.012 821.416 728.86 821.416ZM743.825 821.368H744.113C746.585 821.368 747.401 820.96 747.401 819.64V819.448C747.401 817.912 746.801 817.408 745.049 817.408H742.865V815.44H744.785C746.585 815.44 747.161 814.984 747.161 813.712V813.472C747.161 812.344 746.465 811.984 744.353 811.984H744.065C741.833 811.984 740.969 812.416 740.753 813.688H738.569C738.929 811.12 740.513 809.968 743.705 809.968H744.281C747.761 809.968 749.321 810.976 749.321 813.352V813.616C749.321 815.512 748.505 816.352 746.657 816.352V816.664C748.697 816.664 749.561 817.408 749.561 819.52V819.808C749.561 822.28 747.929 823.384 744.281 823.384H743.753C740.489 823.384 738.833 821.944 738.425 818.752H740.609C740.969 820.744 741.785 821.368 743.825 821.368ZM754.312 811.36H753.952V823H751.84V810.352H756.16L759.232 821.992H759.592L762.352 810.352H766.624V823H764.512V811.36H764.152L761.392 823H757.384L754.312 811.36ZM775.83 823.384H775.35C770.958 823.384 769.014 821.416 769.014 816.976V816.424C769.014 811.936 770.886 809.968 775.11 809.968H775.59C779.838 809.968 781.734 811.984 781.734 816.424V817.312H771.126C771.126 820.432 772.278 821.368 775.446 821.368H775.782C778.374 821.368 779.238 820.864 779.718 819.04H781.926C781.374 822.04 779.502 823.384 775.83 823.384ZM779.574 815.44C779.358 812.92 778.23 811.984 775.542 811.984H775.206C772.446 811.984 771.39 812.872 771.174 815.44H779.574ZM784.324 810.352H786.436V821.032H791.38V810.352H793.492V821.032H798.436V810.352H800.548V821.032H802.492V826.288H800.524V823H784.324V810.352ZM810.892 823.384H810.412C806.02 823.384 804.076 821.416 804.076 816.976V816.424C804.076 811.936 805.948 809.968 810.172 809.968H810.652C814.9 809.968 816.796 811.984 816.796 816.424V817.312H806.188C806.188 820.432 807.34 821.368 810.508 821.368H810.844C813.436 821.368 814.3 820.864 814.78 819.04H816.988C816.436 822.04 814.564 823.384 810.892 823.384ZM814.636 815.44C814.42 812.92 813.292 811.984 810.604 811.984H810.268C807.508 811.984 806.452 812.872 806.236 815.44H814.636ZM821.498 815.416H829.082V810.352H831.194V823H829.082V817.384H821.498V823H819.386V810.352H821.498V815.416ZM833.824 810.352H835.936V821.992H836.296L841.168 810.352H845.416V823H843.304V811.36H842.944L838.072 823H833.824V810.352ZM854.626 823.384H854.146C849.754 823.384 847.81 821.416 847.81 816.976V816.424C847.81 811.936 849.682 809.968 853.906 809.968H854.386C858.634 809.968 860.53 811.984 860.53 816.424V817.312H849.922C849.922 820.432 851.074 821.368 854.242 821.368H854.578C857.17 821.368 858.034 820.864 858.514 819.04H860.722C860.17 822.04 858.298 823.384 854.626 823.384ZM858.37 815.44C858.154 812.92 857.026 811.984 854.338 811.984H854.002C851.242 811.984 850.186 812.872 849.97 815.44H858.37ZM563.17 842.352H569.458C572.602 842.352 573.994 843.36 573.994 845.688V845.76C573.994 847.08 573.322 847.824 571.81 848.184V848.64C573.442 848.952 574.234 849.936 574.234 851.568V851.616C574.234 853.944 572.842 855 569.698 855H563.17V842.352ZM569.53 853.032C571.618 853.032 572.314 852.648 572.314 851.424V851.208C572.314 849.792 571.714 849.312 569.866 849.312H565.282V853.032H569.53ZM569.626 847.488C571.474 847.488 572.074 847.056 572.074 845.808V845.616C572.074 844.56 571.378 844.224 569.29 844.224H565.282V847.488H569.626ZM595.413 853.032V858.288H593.445V855H582.501V858.288H580.533V853.032H582.189C582.525 852.048 582.765 851.16 582.933 850.32C583.101 849.504 583.197 848.496 583.269 847.32C583.341 846.144 583.365 844.488 583.365 842.352H593.445V853.032H595.413ZM591.333 853.032V844.272H585.381C585.381 846.216 585.285 847.848 585.093 849.192C584.901 850.56 584.637 851.832 584.277 853.032H591.333ZM597.366 842.352H603.654C606.798 842.352 608.19 843.36 608.19 845.688V845.76C608.19 847.08 607.518 847.824 606.006 848.184V848.64C607.638 848.952 608.43 849.936 608.43 851.568V851.616C608.43 853.944 607.038 855 603.894 855H597.366V842.352ZM603.726 853.032C605.814 853.032 606.51 852.648 606.51 851.424V851.208C606.51 849.792 605.91 849.312 604.062 849.312H599.478V853.032H603.726ZM603.822 847.488C605.67 847.488 606.27 847.056 606.27 845.808V845.616C606.27 844.56 605.574 844.224 603.486 844.224H599.478V847.488H603.822ZM609.924 842.352H612.252L616.572 851.928H616.932L621.204 842.352H623.484L617.82 855V859.224C617.82 860.064 617.604 860.28 616.764 860.28H612.036V858.336H615.66V855L609.924 842.352ZM627.377 855H624.953L628.601 848.808V848.424L624.929 842.352H627.377L630.617 847.752H631.409L634.649 842.352H637.097L633.425 848.424V848.808L637.073 855H634.649L631.409 849.48H630.617L627.377 855ZM641.366 843.36H641.006V855H638.894V842.352H643.214L646.286 853.992H646.646L649.406 842.352H653.678V855H651.566V843.36H651.206L648.446 855H644.438L641.366 843.36ZM662.884 855.384H662.404C658.012 855.384 656.068 853.416 656.068 848.976V848.424C656.068 843.936 657.94 841.968 662.164 841.968H662.644C666.892 841.968 668.788 843.984 668.788 848.424V849.312H658.18C658.18 852.432 659.332 853.368 662.5 853.368H662.836C665.428 853.368 666.292 852.864 666.772 851.04H668.98C668.428 854.04 666.556 855.384 662.884 855.384ZM666.628 847.44C666.412 844.92 665.284 843.984 662.596 843.984H662.26C659.5 843.984 658.444 844.872 658.228 847.44H666.628ZM677.523 855.384H677.067C672.963 855.384 671.139 853.416 671.139 848.976V848.424C671.139 843.984 672.963 841.968 677.067 841.968H677.523C681.099 841.968 682.875 843.408 683.331 846.648H681.147C680.787 844.656 679.827 843.984 677.451 843.984H677.139C675.195 843.984 674.139 844.512 673.659 845.808C673.419 846.456 673.299 847.368 673.299 848.496V848.88C673.299 852.288 674.211 853.368 677.139 853.368H677.451C679.923 853.368 680.931 852.696 681.291 850.752H683.475C683.067 853.944 681.243 855.384 677.523 855.384ZM696.533 844.32H691.541V855H689.429V844.32H684.437V842.352H696.533V844.32ZM700.444 847.416H708.028V842.352H710.14V855H708.028V849.384H700.444V855H698.332V842.352H700.444V847.416ZM718.817 841.968H719.297C723.689 841.968 725.633 843.936 725.633 848.424V848.976C725.633 853.416 723.689 855.384 719.297 855.384H718.817C714.473 855.384 712.529 853.416 712.529 848.976V848.424C712.529 843.936 714.473 841.968 718.817 841.968ZM718.913 853.368H719.249C721.385 853.368 722.561 852.84 723.089 851.568C723.353 850.92 723.473 850.032 723.473 848.904V848.544C723.473 846.216 722.993 844.992 721.769 844.416C721.169 844.128 720.329 843.984 719.249 843.984H718.913C716.777 843.984 715.625 844.512 715.097 845.808C714.833 846.456 714.689 847.368 714.689 848.544V848.904C714.689 851.184 715.169 852.384 716.393 852.936C716.993 853.224 717.833 853.368 718.913 853.368ZM730.499 843.36H730.139V855H728.027V842.352H732.347L735.419 853.992H735.779L738.539 842.352H742.811V855H740.699V843.36H740.339L737.579 855H733.571L730.499 843.36ZM752.358 847.416H759.942V842.352H762.054V855H759.942V849.384H752.358V855H750.246V842.352H752.358V847.416ZM770.731 841.968H771.211C775.603 841.968 777.547 843.936 777.547 848.424V848.976C777.547 853.416 775.603 855.384 771.211 855.384H770.731C766.387 855.384 764.443 853.416 764.443 848.976V848.424C764.443 843.936 766.387 841.968 770.731 841.968ZM770.827 853.368H771.163C773.299 853.368 774.475 852.84 775.003 851.568C775.267 850.92 775.387 850.032 775.387 848.904V848.544C775.387 846.216 774.907 844.992 773.683 844.416C773.083 844.128 772.243 843.984 771.163 843.984H770.827C768.691 843.984 767.539 844.512 767.011 845.808C766.747 846.456 766.603 847.368 766.603 848.544V848.904C766.603 851.184 767.083 852.384 768.307 852.936C768.907 853.224 769.747 853.368 770.827 853.368ZM782.413 843.36H782.053V855H779.941V842.352H784.261L787.333 853.992H787.693L790.453 842.352H794.725V855H792.613V843.36H792.253L789.493 855H785.485L782.413 843.36ZM803.931 855.384H803.451C799.059 855.384 797.115 853.416 797.115 848.976V848.424C797.115 843.936 798.987 841.968 803.211 841.968H803.691C807.939 841.968 809.835 843.984 809.835 848.424V849.312H799.227C799.227 852.432 800.379 853.368 803.547 853.368H803.883C806.475 853.368 807.339 852.864 807.819 851.04H810.027C809.475 854.04 807.603 855.384 803.931 855.384ZM807.675 847.44C807.459 844.92 806.331 843.984 803.643 843.984H803.307C800.547 843.984 799.491 844.872 799.275 847.44H807.675ZM814.873 852.672H814.537V860.28H812.425V842.352H814.537V844.608H814.873C815.761 842.856 817.225 841.968 819.265 841.968H819.673C823.417 841.968 825.121 843.96 825.121 848.448V848.856C825.121 853.368 823.417 855.384 819.673 855.384H819.265C817.033 855.384 815.569 854.472 814.873 852.672ZM818.545 853.392H818.809C819.865 853.392 820.681 853.248 821.281 852.96C822.457 852.384 822.961 851.112 822.961 848.808V848.52C822.961 846.192 822.505 844.944 821.305 844.368C820.705 844.08 819.865 843.936 818.809 843.936H818.569C815.761 843.936 814.537 845.76 814.537 848.52V848.808C814.537 850.08 814.873 851.16 815.569 852.048C816.241 852.936 817.225 853.392 818.545 853.392ZM834.095 855.384H833.615C829.223 855.384 827.279 853.416 827.279 848.976V848.424C827.279 843.936 829.151 841.968 833.375 841.968H833.855C838.103 841.968 839.999 843.984 839.999 848.424V849.312H829.391C829.391 852.432 830.543 853.368 833.711 853.368H834.047C836.639 853.368 837.503 852.864 837.983 851.04H840.191C839.639 854.04 837.767 855.384 834.095 855.384ZM837.839 847.44C837.623 844.92 836.495 843.984 833.807 843.984H833.471C830.711 843.984 829.655 844.872 829.439 847.44H837.839Z" fill="black" fill-opacity="0.5"/>
    <path d="M1416.68 377.657H1583V589H1216V377.657H1383.32L1400 357L1416.68 377.657Z" fill="white"/>
    <path d="M1276.45 415.656V426.276H1290.81V415.656H1294.12V441H1290.81V429.372H1276.45V441H1273.13V415.656H1276.45ZM1307.54 421.452H1308.26C1314.85 421.452 1317.77 424.404 1317.77 431.136V431.964C1317.77 438.624 1314.85 441.576 1308.26 441.576H1307.54C1301.03 441.576 1298.11 438.624 1298.11 431.964V431.136C1298.11 424.404 1301.03 421.452 1307.54 421.452ZM1307.69 438.552H1308.19C1311.4 438.552 1313.16 437.76 1313.95 435.852C1314.35 434.88 1314.53 433.548 1314.53 431.856V431.316C1314.53 427.824 1313.81 425.988 1311.97 425.124C1311.07 424.692 1309.81 424.476 1308.19 424.476H1307.69C1304.48 424.476 1302.76 425.268 1301.96 427.212C1301.57 428.184 1301.35 429.552 1301.35 431.316V431.856C1301.35 435.276 1302.07 437.076 1303.91 437.904C1304.81 438.336 1306.07 438.552 1307.69 438.552ZM1325.07 423.54H1324.53V441H1321.36V422.028H1327.84L1332.45 439.488H1332.99L1337.13 422.028H1343.53V441H1340.37V423.54H1339.83L1335.69 441H1329.67L1325.07 423.54ZM1357.34 441.576H1356.62C1350.04 441.576 1347.12 438.624 1347.12 431.964V431.136C1347.12 424.404 1349.93 421.452 1356.26 421.452H1356.98C1363.36 421.452 1366.2 424.476 1366.2 431.136V432.468H1350.29C1350.29 437.148 1352.02 438.552 1356.77 438.552H1357.27C1361.16 438.552 1362.46 437.796 1363.18 435.06H1366.49C1365.66 439.56 1362.85 441.576 1357.34 441.576ZM1362.96 429.66C1362.64 425.88 1360.94 424.476 1356.91 424.476H1356.41C1352.27 424.476 1350.68 425.808 1350.36 429.66H1362.96ZM1373.76 437.508H1373.25V448.92H1370.09V422.028H1373.25V425.412H1373.76C1375.09 422.784 1377.29 421.452 1380.35 421.452H1380.96C1386.57 421.452 1389.13 424.44 1389.13 431.172V431.784C1389.13 438.552 1386.57 441.576 1380.96 441.576H1380.35C1377 441.576 1374.8 440.208 1373.76 437.508ZM1379.27 438.588H1379.66C1381.25 438.588 1382.47 438.372 1383.37 437.94C1385.13 437.076 1385.89 435.168 1385.89 431.712V431.28C1385.89 427.788 1385.21 425.916 1383.41 425.052C1382.51 424.62 1381.25 424.404 1379.66 424.404H1379.3C1375.09 424.404 1373.25 427.14 1373.25 431.28V431.712C1373.25 433.62 1373.76 435.24 1374.8 436.572C1375.81 437.904 1377.29 438.588 1379.27 438.588ZM1418.83 418.752H1403.64V441H1400.33V415.656H1418.83V418.752ZM1425.34 415.656H1431.6L1439.48 441H1436.1L1433.9 433.944H1422.92L1420.73 441H1417.42L1425.34 415.656ZM1432.97 430.992L1428.79 417.564H1428.07L1423.86 430.992H1432.97ZM1442.76 415.656H1449.64L1456.08 438.768H1456.8L1463.21 415.656H1470.01V441H1466.7V417.528H1465.98L1459.47 441H1453.35L1446.79 417.528H1446.07V441H1442.76V415.656ZM1474.75 415.656H1481.63L1488.07 438.768H1488.79L1495.2 415.656H1502.01V441H1498.69V417.528H1497.97L1491.46 441H1485.34L1478.79 417.528H1478.07V441H1474.75V415.656ZM1513.19 415.656H1519.46L1527.34 441H1523.96L1521.76 433.944H1510.78L1508.58 441H1505.27L1513.19 415.656ZM1520.82 430.992L1516.65 417.564H1515.93L1511.72 430.992H1520.82Z" fill="black"/>
    <path d="M1284.25 504.104V511.184H1293.83V504.104H1296.04V521H1293.83V513.248H1284.25V521H1282.04V504.104H1284.25ZM1304.99 507.968H1305.47C1309.86 507.968 1311.8 509.936 1311.8 514.424V514.976C1311.8 519.416 1309.86 521.384 1305.47 521.384H1304.99C1300.64 521.384 1298.7 519.416 1298.7 514.976V514.424C1298.7 509.936 1300.64 507.968 1304.99 507.968ZM1305.08 519.368H1305.42C1307.55 519.368 1308.73 518.84 1309.26 517.568C1309.52 516.92 1309.64 516.032 1309.64 514.904V514.544C1309.64 512.216 1309.16 510.992 1307.94 510.416C1307.34 510.128 1306.5 509.984 1305.42 509.984H1305.08C1302.95 509.984 1301.79 510.512 1301.27 511.808C1301 512.456 1300.86 513.368 1300.86 514.544V514.904C1300.86 517.184 1301.34 518.384 1302.56 518.936C1303.16 519.224 1304 519.368 1305.08 519.368ZM1316.67 509.36H1316.31V521H1314.2V508.352H1318.52L1321.59 519.992H1321.95L1324.71 508.352H1328.98V521H1326.87V509.36H1326.51L1323.75 521H1319.74L1316.67 509.36ZM1338.19 521.384H1337.71C1333.31 521.384 1331.37 519.416 1331.37 514.976V514.424C1331.37 509.936 1333.24 507.968 1337.47 507.968H1337.95C1342.19 507.968 1344.09 509.984 1344.09 514.424V515.312H1333.48C1333.48 518.432 1334.63 519.368 1337.8 519.368H1338.14C1340.73 519.368 1341.59 518.864 1342.07 517.04H1344.28C1343.73 520.04 1341.86 521.384 1338.19 521.384ZM1341.93 513.44C1341.71 510.92 1340.59 509.984 1337.9 509.984H1337.56C1334.8 509.984 1333.75 510.872 1333.53 513.44H1341.93ZM1349.13 518.672H1348.79V526.28H1346.68V508.352H1348.79V510.608H1349.13C1350.02 508.856 1351.48 507.968 1353.52 507.968H1353.93C1357.67 507.968 1359.38 509.96 1359.38 514.448V514.856C1359.38 519.368 1357.67 521.384 1353.93 521.384H1353.52C1351.29 521.384 1349.82 520.472 1349.13 518.672ZM1352.8 519.392H1353.06C1354.12 519.392 1354.94 519.248 1355.54 518.96C1356.71 518.384 1357.22 517.112 1357.22 514.808V514.52C1357.22 512.192 1356.76 510.944 1355.56 510.368C1354.96 510.08 1354.12 509.936 1353.06 509.936H1352.82C1350.02 509.936 1348.79 511.76 1348.79 514.52V514.808C1348.79 516.08 1349.13 517.16 1349.82 518.048C1350.5 518.936 1351.48 519.392 1352.8 519.392ZM1378.34 521H1376.23V510.32H1368.69V521H1366.58V508.352H1378.34V521ZM1387.02 507.968H1387.5C1391.89 507.968 1393.83 509.936 1393.83 514.424V514.976C1393.83 519.416 1391.89 521.384 1387.5 521.384H1387.02C1382.67 521.384 1380.73 519.416 1380.73 514.976V514.424C1380.73 509.936 1382.67 507.968 1387.02 507.968ZM1387.11 519.368H1387.45C1389.58 519.368 1390.76 518.84 1391.29 517.568C1391.55 516.92 1391.67 516.032 1391.67 514.904V514.544C1391.67 512.216 1391.19 510.992 1389.97 510.416C1389.37 510.128 1388.53 509.984 1387.45 509.984H1387.11C1384.98 509.984 1383.82 510.512 1383.3 511.808C1383.03 512.456 1382.89 513.368 1382.89 514.544V514.904C1382.89 517.184 1383.37 518.384 1384.59 518.936C1385.19 519.224 1386.03 519.368 1387.11 519.368ZM1396.35 508.352H1402.63C1405.78 508.352 1407.17 509.36 1407.17 511.688V511.76C1407.17 513.08 1406.5 513.824 1404.99 514.184V514.64C1406.62 514.952 1407.41 515.936 1407.41 517.568V517.616C1407.41 519.944 1406.02 521 1402.87 521H1396.35V508.352ZM1402.71 519.032C1404.79 519.032 1405.49 518.648 1405.49 517.424V517.208C1405.49 515.792 1404.89 515.312 1403.04 515.312H1398.46V519.032H1402.71ZM1402.8 513.488C1404.65 513.488 1405.25 513.056 1405.25 511.808V511.616C1405.25 510.56 1404.55 510.224 1402.47 510.224H1398.46V513.488H1402.8ZM1423.98 508.352V521H1421.86V508.352H1423.98ZM1409.98 508.352H1412.1V512.504H1416.3C1419.08 512.504 1420.33 513.704 1420.33 516.416V517.112C1420.33 519.8 1419.08 521 1416.3 521H1409.98V508.352ZM1415.89 519.032C1417.59 519.032 1418.17 518.48 1418.17 516.848V516.68C1418.17 515.024 1417.59 514.472 1415.89 514.472H1412.1V519.032H1415.89ZM1427.09 508.352H1429.21V519.032H1434.15V508.352H1436.26V519.032H1441.21V508.352H1443.32V521H1427.09V508.352ZM1452.54 521.384H1452.06C1447.66 521.384 1445.72 519.416 1445.72 514.976V514.424C1445.72 509.936 1447.59 507.968 1451.82 507.968H1452.3C1456.54 507.968 1458.44 509.984 1458.44 514.424V515.312H1447.83C1447.83 518.432 1448.98 519.368 1452.15 519.368H1452.49C1455.08 519.368 1455.94 518.864 1456.42 517.04H1458.63C1458.08 520.04 1456.21 521.384 1452.54 521.384ZM1456.28 513.44C1456.06 510.92 1454.94 509.984 1452.25 509.984H1451.91C1449.15 509.984 1448.1 510.872 1447.88 513.44H1456.28ZM1463.14 513.416H1470.73V508.352H1472.84V521H1470.73V515.384H1463.14V521H1461.03V508.352H1463.14V513.416ZM1478.05 513.416H1485.63V508.352H1487.75V521H1485.63V515.384H1478.05V521H1475.94V508.352H1478.05V513.416ZM1496.42 507.968H1496.9C1501.29 507.968 1503.24 509.936 1503.24 514.424V514.976C1503.24 519.416 1501.29 521.384 1496.9 521.384H1496.42C1492.08 521.384 1490.13 519.416 1490.13 514.976V514.424C1490.13 509.936 1492.08 507.968 1496.42 507.968ZM1496.52 519.368H1496.85C1498.99 519.368 1500.17 518.84 1500.69 517.568C1500.96 516.92 1501.08 516.032 1501.08 514.904V514.544C1501.08 512.216 1500.6 510.992 1499.37 510.416C1498.77 510.128 1497.93 509.984 1496.85 509.984H1496.52C1494.38 509.984 1493.23 510.512 1492.7 511.808C1492.44 512.456 1492.29 513.368 1492.29 514.544V514.904C1492.29 517.184 1492.77 518.384 1494 518.936C1494.6 519.224 1495.44 519.368 1496.52 519.368ZM1505.63 508.352H1507.74V519.992H1508.1L1512.98 508.352H1517.22V521H1515.11V509.36H1514.75L1509.88 521H1505.63V508.352ZM1511.61 505.544H1511.2C1508.7 505.544 1507.6 504.512 1507.6 502.208V501.968H1509.16V502.112C1509.16 503.384 1509.71 503.816 1511.27 503.816H1511.51C1513.12 503.816 1513.65 503.384 1513.65 502.112V501.968H1515.21V502.208C1515.21 504.512 1514.1 505.544 1511.61 505.544ZM1311.34 540.352H1313.45V545.656H1317.65L1319.54 540.352H1321.75L1319.64 546.4V546.856L1322.38 553H1320.1L1317.65 547.576H1313.45V553H1311.34V540.352ZM1330.58 539.968H1331.06C1335.45 539.968 1337.39 541.936 1337.39 546.424V546.976C1337.39 551.416 1335.45 553.384 1331.06 553.384H1330.58C1326.23 553.384 1324.29 551.416 1324.29 546.976V546.424C1324.29 541.936 1326.23 539.968 1330.58 539.968ZM1330.67 551.368H1331.01C1333.15 551.368 1334.32 550.84 1334.85 549.568C1335.11 548.92 1335.23 548.032 1335.23 546.904V546.544C1335.23 544.216 1334.75 542.992 1333.53 542.416C1332.93 542.128 1332.09 541.984 1331.01 541.984H1330.67C1328.54 541.984 1327.39 542.512 1326.86 543.808C1326.59 544.456 1326.45 545.368 1326.45 546.544V546.904C1326.45 549.184 1326.93 550.384 1328.15 550.936C1328.75 551.224 1329.59 551.368 1330.67 551.368ZM1342.26 541.36H1341.9V553H1339.79V540.352H1344.11L1347.18 551.992H1347.54L1350.3 540.352H1354.57V553H1352.46V541.36H1352.1L1349.34 553H1345.33L1342.26 541.36ZM1356.96 546.928V546.424C1356.96 542.008 1358.93 540.04 1363.35 540.04H1364.47V535.864H1366.59V540.04H1367.74C1372.15 540.04 1374.1 542.008 1374.1 546.424V546.928C1374.1 551.344 1372.15 553.288 1367.74 553.288H1366.59V558.28H1364.47V553.288H1363.35C1358.93 553.288 1356.96 551.344 1356.96 546.928ZM1363.9 551.272H1364.47V542.056H1363.9C1362.67 542.056 1361.74 542.2 1361.07 542.464C1359.7 543.016 1359.12 544.192 1359.12 546.4V546.928C1359.12 549.136 1359.7 550.312 1361.07 550.864C1361.74 551.128 1362.67 551.272 1363.9 551.272ZM1367.21 551.272C1368.41 551.272 1369.35 551.128 1370.04 550.864C1371.39 550.312 1371.94 549.136 1371.94 546.928V546.4C1371.94 544.192 1371.39 543.016 1370.04 542.464C1369.35 542.2 1368.41 542.056 1367.21 542.056H1366.59V551.272H1367.21ZM1382.54 539.968H1383.02C1387.41 539.968 1389.36 541.936 1389.36 546.424V546.976C1389.36 551.416 1387.41 553.384 1383.02 553.384H1382.54C1378.2 553.384 1376.25 551.416 1376.25 546.976V546.424C1376.25 541.936 1378.2 539.968 1382.54 539.968ZM1382.64 551.368H1382.97C1385.11 551.368 1386.28 550.84 1386.81 549.568C1387.08 548.92 1387.2 548.032 1387.2 546.904V546.544C1387.2 544.216 1386.72 542.992 1385.49 542.416C1384.89 542.128 1384.05 541.984 1382.97 541.984H1382.64C1380.5 541.984 1379.35 542.512 1378.82 543.808C1378.56 544.456 1378.41 545.368 1378.41 546.544V546.904C1378.41 549.184 1378.89 550.384 1380.12 550.936C1380.72 551.224 1381.56 551.368 1382.64 551.368ZM1394.2 550.672H1393.86V558.28H1391.75V540.352H1393.86V542.608H1394.2C1395.09 540.856 1396.55 539.968 1398.59 539.968H1399C1402.74 539.968 1404.45 541.96 1404.45 546.448V546.856C1404.45 551.368 1402.74 553.384 1399 553.384H1398.59C1396.36 553.384 1394.89 552.472 1394.2 550.672ZM1397.87 551.392H1398.13C1399.19 551.392 1400.01 551.248 1400.61 550.96C1401.78 550.384 1402.29 549.112 1402.29 546.808V546.52C1402.29 544.192 1401.83 542.944 1400.63 542.368C1400.03 542.08 1399.19 541.936 1398.13 541.936H1397.89C1395.09 541.936 1393.86 543.76 1393.86 546.52V546.808C1393.86 548.08 1394.2 549.16 1394.89 550.048C1395.57 550.936 1396.55 551.392 1397.87 551.392ZM1417.63 542.32H1412.64V553H1410.53V542.32H1405.53V540.352H1417.63V542.32ZM1421.54 545.416H1429.13V540.352H1431.24V553H1429.13V547.384H1421.54V553H1419.43V540.352H1421.54V545.416ZM1439.91 539.968H1440.39C1444.79 539.968 1446.73 541.936 1446.73 546.424V546.976C1446.73 551.416 1444.79 553.384 1440.39 553.384H1439.91C1435.57 553.384 1433.63 551.416 1433.63 546.976V546.424C1433.63 541.936 1435.57 539.968 1439.91 539.968ZM1440.01 551.368H1440.35C1442.48 551.368 1443.66 550.84 1444.19 549.568C1444.45 548.92 1444.57 548.032 1444.57 546.904V546.544C1444.57 544.216 1444.09 542.992 1442.87 542.416C1442.27 542.128 1441.43 541.984 1440.35 541.984H1440.01C1437.87 541.984 1436.72 542.512 1436.19 543.808C1435.93 544.456 1435.79 545.368 1435.79 546.544V546.904C1435.79 549.184 1436.27 550.384 1437.49 550.936C1438.09 551.224 1438.93 551.368 1440.01 551.368ZM1455.27 553.384H1454.81C1450.71 553.384 1448.88 551.416 1448.88 546.976V546.424C1448.88 541.984 1450.71 539.968 1454.81 539.968H1455.27C1458.84 539.968 1460.62 541.408 1461.08 544.648H1458.89C1458.53 542.656 1457.57 541.984 1455.2 541.984H1454.88C1452.94 541.984 1451.88 542.512 1451.4 543.808C1451.16 544.456 1451.04 545.368 1451.04 546.496V546.88C1451.04 550.288 1451.96 551.368 1454.88 551.368H1455.2C1457.67 551.368 1458.68 550.696 1459.04 548.752H1461.22C1460.81 551.944 1458.99 553.384 1455.27 553.384ZM1474.28 542.32H1469.29V553H1467.18V542.32H1462.18V540.352H1474.28V542.32ZM1476.08 540.352H1478.19V551.992H1478.55L1483.42 540.352H1487.67V553H1485.56V541.36H1485.2L1480.33 553H1476.08V540.352Z" fill="black" fill-opacity="0.5"/>
    <path d="M1072.68 1304.66H1239V1516H872V1304.66H1039.32L1056 1284L1072.68 1304.66Z" fill="white"/>
    <path d="M936.348 1342.66V1353.28H950.712V1342.66H954.024V1368H950.712V1356.37H936.348V1368H933.036V1342.66H936.348ZM967.447 1348.45H968.167C974.755 1348.45 977.671 1351.4 977.671 1358.14V1358.96C977.671 1365.62 974.755 1368.58 968.167 1368.58H967.447C960.931 1368.58 958.015 1365.62 958.015 1358.96V1358.14C958.015 1351.4 960.931 1348.45 967.447 1348.45ZM967.591 1365.55H968.095C971.299 1365.55 973.063 1364.76 973.855 1362.85C974.251 1361.88 974.431 1360.55 974.431 1358.86V1358.32C974.431 1354.82 973.711 1352.99 971.875 1352.12C970.975 1351.69 969.715 1351.48 968.095 1351.48H967.591C964.387 1351.48 962.659 1352.27 961.867 1354.21C961.471 1355.18 961.255 1356.55 961.255 1358.32V1358.86C961.255 1362.28 961.975 1364.08 963.811 1364.9C964.711 1365.34 965.971 1365.55 967.591 1365.55ZM984.969 1350.54H984.429V1368H981.261V1349.03H987.741L992.349 1366.49H992.889L997.029 1349.03H1003.44V1368H1000.27V1350.54H999.729L995.589 1368H989.577L984.969 1350.54ZM1017.25 1368.58H1016.53C1009.94 1368.58 1007.02 1365.62 1007.02 1358.96V1358.14C1007.02 1351.4 1009.83 1348.45 1016.17 1348.45H1016.89C1023.26 1348.45 1026.1 1351.48 1026.1 1358.14V1359.47H1010.19C1010.19 1364.15 1011.92 1365.55 1016.67 1365.55H1017.17C1021.06 1365.55 1022.36 1364.8 1023.08 1362.06H1026.39C1025.56 1366.56 1022.75 1368.58 1017.25 1368.58ZM1022.86 1356.66C1022.54 1352.88 1020.85 1351.48 1016.81 1351.48H1016.31C1012.17 1351.48 1010.59 1352.81 1010.26 1356.66H1022.86ZM1033.66 1364.51H1033.16V1375.92H1029.99V1349.03H1033.16V1352.41H1033.66C1034.99 1349.78 1037.19 1348.45 1040.25 1348.45H1040.86C1046.48 1348.45 1049.03 1351.44 1049.03 1358.17V1358.78C1049.03 1365.55 1046.48 1368.58 1040.86 1368.58H1040.25C1036.9 1368.58 1034.7 1367.21 1033.66 1364.51ZM1039.17 1365.59H1039.56C1041.15 1365.59 1042.37 1365.37 1043.27 1364.94C1045.04 1364.08 1045.79 1362.17 1045.79 1358.71V1358.28C1045.79 1354.79 1045.11 1352.92 1043.31 1352.05C1042.41 1351.62 1041.15 1351.4 1039.56 1351.4H1039.2C1034.99 1351.4 1033.16 1354.14 1033.16 1358.28V1358.71C1033.16 1360.62 1033.66 1362.24 1034.7 1363.57C1035.71 1364.9 1037.19 1365.59 1039.17 1365.59ZM1071.1 1342.08H1071.86C1079.78 1342.08 1083.31 1345.93 1083.31 1354.68V1356.05C1083.31 1364.72 1079.78 1368.58 1071.86 1368.58H1071.1C1063.18 1368.58 1059.66 1364.72 1059.66 1356.05V1354.68C1059.66 1345.93 1063.18 1342.08 1071.1 1342.08ZM1071.28 1365.34H1071.64C1075.82 1365.34 1078.05 1364.22 1079.1 1361.48C1079.6 1360.15 1079.85 1358.24 1079.85 1355.83V1354.9C1079.85 1352.48 1079.6 1350.58 1079.1 1349.17C1078.05 1346.44 1075.82 1345.32 1071.64 1345.32H1071.28C1067.14 1345.32 1064.91 1346.44 1063.9 1349.17C1063.36 1350.58 1063.11 1352.48 1063.11 1354.9V1355.83C1063.11 1360.69 1064.08 1363.25 1066.42 1364.44C1067.61 1365.05 1069.23 1365.34 1071.28 1365.34ZM1087.48 1342.66H1094.35L1100.8 1365.77H1101.52L1107.93 1342.66H1114.73V1368H1111.42V1344.53H1110.7L1104.18 1368H1098.06L1091.51 1344.53H1090.79V1368H1087.48V1342.66ZM1136.71 1342.66V1345.75H1122.78V1353.31H1134.3V1356.41H1122.78V1364.9H1136.71V1368H1119.47V1342.66H1136.71ZM1158.79 1345.75H1143.59V1368H1140.28V1342.66H1158.79V1345.75ZM1165.29 1342.66H1171.55L1179.44 1368H1176.05L1173.86 1360.94H1162.88L1160.68 1368H1157.37L1165.29 1342.66ZM1172.92 1357.99L1168.74 1344.56H1168.02L1163.81 1357.99H1172.92Z" fill="black"/>
    <path d="M980.719 1430.72H981.223C986.503 1430.72 988.855 1433.29 988.855 1439.12V1440.03C988.855 1445.82 986.503 1448.38 981.223 1448.38H980.719C975.439 1448.38 973.087 1445.82 973.087 1440.03V1439.12C973.087 1433.29 975.439 1430.72 980.719 1430.72ZM980.839 1446.22H981.079C983.863 1446.22 985.351 1445.48 986.047 1443.66C986.383 1442.77 986.551 1441.5 986.551 1439.89V1439.26C986.551 1437.66 986.383 1436.38 986.047 1435.45C985.351 1433.62 983.863 1432.88 981.079 1432.88H980.839C978.079 1432.88 976.591 1433.62 975.919 1435.45C975.559 1436.38 975.391 1437.66 975.391 1439.26V1439.89C975.391 1443.13 976.039 1444.83 977.599 1445.62C978.391 1446.03 979.471 1446.22 980.839 1446.22ZM1004.7 1446.03V1451.29H1002.73V1448H991.79V1451.29H989.822V1446.03H991.478C991.814 1445.05 992.054 1444.16 992.222 1443.32C992.39 1442.5 992.486 1441.5 992.558 1440.32C992.63 1439.14 992.654 1437.49 992.654 1435.35H1002.73V1446.03H1004.7ZM1000.62 1446.03V1437.27H994.67C994.67 1439.22 994.574 1440.85 994.382 1442.19C994.19 1443.56 993.926 1444.83 993.566 1446.03H1000.62ZM1008.65 1440.42H1016.23V1435.35H1018.34V1448H1016.23V1442.38H1008.65V1448H1006.53V1435.35H1008.65V1440.42ZM1027.02 1434.97H1027.5C1031.89 1434.97 1033.84 1436.94 1033.84 1441.42V1441.98C1033.84 1446.42 1031.89 1448.38 1027.5 1448.38H1027.02C1022.68 1448.38 1020.73 1446.42 1020.73 1441.98V1441.42C1020.73 1436.94 1022.68 1434.97 1027.02 1434.97ZM1027.12 1446.37H1027.45C1029.59 1446.37 1030.76 1445.84 1031.29 1444.57C1031.56 1443.92 1031.68 1443.03 1031.68 1441.9V1441.54C1031.68 1439.22 1031.2 1437.99 1029.97 1437.42C1029.37 1437.13 1028.53 1436.98 1027.45 1436.98H1027.12C1024.98 1436.98 1023.83 1437.51 1023.3 1438.81C1023.04 1439.46 1022.89 1440.37 1022.89 1441.54V1441.9C1022.89 1444.18 1023.37 1445.38 1024.6 1445.94C1025.2 1446.22 1026.04 1446.37 1027.12 1446.37ZM1038.7 1436.36H1038.34V1448H1036.23V1435.35H1040.55L1043.62 1446.99H1043.98L1046.74 1435.35H1051.01V1448H1048.9V1436.36H1048.54L1045.78 1448H1041.77L1038.7 1436.36ZM1060.22 1448.38H1059.74C1055.35 1448.38 1053.4 1446.42 1053.4 1441.98V1441.42C1053.4 1436.94 1055.28 1434.97 1059.5 1434.97H1059.98C1064.23 1434.97 1066.12 1436.98 1066.12 1441.42V1442.31H1055.52C1055.52 1445.43 1056.67 1446.37 1059.84 1446.37H1060.17C1062.76 1446.37 1063.63 1445.86 1064.11 1444.04H1066.32C1065.76 1447.04 1063.89 1448.38 1060.22 1448.38ZM1063.96 1440.44C1063.75 1437.92 1062.62 1436.98 1059.93 1436.98H1059.6C1056.84 1436.98 1055.78 1437.87 1055.56 1440.44H1063.96ZM1074.86 1448.38H1074.4C1070.3 1448.38 1068.47 1446.42 1068.47 1441.98V1441.42C1068.47 1436.98 1070.3 1434.97 1074.4 1434.97H1074.86C1078.43 1434.97 1080.21 1436.41 1080.67 1439.65H1078.48C1078.12 1437.66 1077.16 1436.98 1074.79 1436.98H1074.47C1072.53 1436.98 1071.47 1437.51 1070.99 1438.81C1070.75 1439.46 1070.63 1440.37 1070.63 1441.5V1441.88C1070.63 1445.29 1071.55 1446.37 1074.47 1446.37H1074.79C1077.26 1446.37 1078.27 1445.7 1078.63 1443.75H1080.81C1080.4 1446.94 1078.58 1448.38 1074.86 1448.38ZM1093.87 1437.32H1088.88V1448H1086.76V1437.32H1081.77V1435.35H1093.87V1437.32ZM1097.78 1440.42H1105.36V1435.35H1107.48V1448H1105.36V1442.38H1097.78V1448H1095.67V1435.35H1097.78V1440.42ZM1116.15 1434.97H1116.63C1121.03 1434.97 1122.97 1436.94 1122.97 1441.42V1441.98C1122.97 1446.42 1121.03 1448.38 1116.63 1448.38H1116.15C1111.81 1448.38 1109.87 1446.42 1109.87 1441.98V1441.42C1109.87 1436.94 1111.81 1434.97 1116.15 1434.97ZM1116.25 1446.37H1116.59C1118.72 1446.37 1119.9 1445.84 1120.43 1444.57C1120.69 1443.92 1120.81 1443.03 1120.81 1441.9V1441.54C1120.81 1439.22 1120.33 1437.99 1119.11 1437.42C1118.51 1437.13 1117.67 1436.98 1116.59 1436.98H1116.25C1114.11 1436.98 1112.96 1437.51 1112.43 1438.81C1112.17 1439.46 1112.03 1440.37 1112.03 1441.54V1441.9C1112.03 1444.18 1112.51 1445.38 1113.73 1445.94C1114.33 1446.22 1115.17 1446.37 1116.25 1446.37ZM1131.94 1448.38H1131.46C1127.07 1448.38 1125.12 1446.42 1125.12 1441.98V1441.42C1125.12 1436.94 1126.99 1434.97 1131.22 1434.97H1131.7C1135.95 1434.97 1137.84 1436.98 1137.84 1441.42V1442.31H1127.23C1127.23 1445.43 1128.39 1446.37 1131.55 1446.37H1131.89C1134.48 1446.37 1135.35 1445.86 1135.83 1444.04H1138.03C1137.48 1447.04 1135.61 1448.38 1131.94 1448.38ZM1135.68 1440.44C1135.47 1437.92 1134.34 1436.98 1131.65 1436.98H1131.31C1128.55 1436.98 1127.5 1437.87 1127.28 1440.44H1135.68ZM982.311 1477.67H981.975V1485.28H979.863V1467.35H981.975V1469.61H982.311C983.199 1467.86 984.663 1466.97 986.703 1466.97H987.111C990.855 1466.97 992.559 1468.96 992.559 1473.45V1473.86C992.559 1478.37 990.855 1480.38 987.111 1480.38H986.703C984.471 1480.38 983.007 1479.47 982.311 1477.67ZM985.983 1478.39H986.247C987.303 1478.39 988.119 1478.25 988.719 1477.96C989.895 1477.38 990.399 1476.11 990.399 1473.81V1473.52C990.399 1471.19 989.943 1469.94 988.743 1469.37C988.143 1469.08 987.303 1468.94 986.247 1468.94H986.007C983.199 1468.94 981.975 1470.76 981.975 1473.52V1473.81C981.975 1475.08 982.311 1476.16 983.007 1477.05C983.679 1477.94 984.663 1478.39 985.983 1478.39ZM994.717 1476.4C994.717 1473.76 996.253 1472.44 999.301 1472.44H1004.48C1004.48 1469.8 1003.57 1468.94 1000.93 1468.94H1000.55C998.029 1468.94 997.093 1469.63 997.093 1471.55H995.101C995.101 1468.31 996.637 1466.97 1000.5 1466.97H1000.93C1004.87 1466.97 1006.62 1468.74 1006.62 1472.8V1477.94H1007.6V1480H1005.92C1005.52 1480 1005.23 1479.93 1005.04 1479.81C1004.63 1479.57 1004.48 1479.04 1004.48 1477.86H1004.12C1003.62 1479.69 1002.4 1480.38 999.925 1480.38H999.373C996.277 1480.38 994.717 1479.11 994.717 1476.4ZM999.517 1478.42H999.949C1003.19 1478.42 1004.48 1477.38 1004.48 1474.43V1474.29H999.781C997.597 1474.29 996.853 1474.79 996.853 1476.3C996.853 1477.86 997.669 1478.42 999.517 1478.42ZM1014.48 1478.37H1014.77C1017.24 1478.37 1018.06 1477.96 1018.06 1476.64V1476.45C1018.06 1474.91 1017.46 1474.41 1015.71 1474.41H1013.52V1472.44H1015.44C1017.24 1472.44 1017.82 1471.98 1017.82 1470.71V1470.47C1017.82 1469.34 1017.12 1468.98 1015.01 1468.98H1014.72C1012.49 1468.98 1011.63 1469.42 1011.41 1470.69H1009.23C1009.59 1468.12 1011.17 1466.97 1014.36 1466.97H1014.94C1018.42 1466.97 1019.98 1467.98 1019.98 1470.35V1470.62C1019.98 1472.51 1019.16 1473.35 1017.31 1473.35V1473.66C1019.35 1473.66 1020.22 1474.41 1020.22 1476.52V1476.81C1020.22 1479.28 1018.59 1480.38 1014.94 1480.38H1014.41C1011.15 1480.38 1009.49 1478.94 1009.08 1475.75H1011.27C1011.63 1477.74 1012.44 1478.37 1014.48 1478.37ZM1024.97 1468.36H1024.61V1480H1022.5V1467.35H1026.82L1029.89 1478.99H1030.25L1033.01 1467.35H1037.28V1480H1035.17V1468.36H1034.81L1032.05 1480H1028.04L1024.97 1468.36ZM1046.49 1480.38H1046.01C1041.61 1480.38 1039.67 1478.42 1039.67 1473.98V1473.42C1039.67 1468.94 1041.54 1466.97 1045.77 1466.97H1046.25C1050.49 1466.97 1052.39 1468.98 1052.39 1473.42V1474.31H1041.78C1041.78 1477.43 1042.93 1478.37 1046.1 1478.37H1046.44C1049.03 1478.37 1049.89 1477.86 1050.37 1476.04H1052.58C1052.03 1479.04 1050.16 1480.38 1046.49 1480.38ZM1050.23 1472.44C1050.01 1469.92 1048.89 1468.98 1046.2 1468.98H1045.86C1043.1 1468.98 1042.05 1469.87 1041.83 1472.44H1050.23ZM1054.98 1467.35H1057.09V1478.03H1062.04V1467.35H1064.15V1478.03H1069.09V1467.35H1071.2V1478.03H1073.15V1483.29H1071.18V1480H1054.98V1467.35ZM1081.55 1480.38H1081.07C1076.68 1480.38 1074.73 1478.42 1074.73 1473.98V1473.42C1074.73 1468.94 1076.6 1466.97 1080.83 1466.97H1081.31C1085.56 1466.97 1087.45 1468.98 1087.45 1473.42V1474.31H1076.84C1076.84 1477.43 1078 1478.37 1081.16 1478.37H1081.5C1084.09 1478.37 1084.96 1477.86 1085.44 1476.04H1087.64C1087.09 1479.04 1085.22 1480.38 1081.55 1480.38ZM1085.29 1472.44C1085.08 1469.92 1083.95 1468.98 1081.26 1468.98H1080.92C1078.16 1468.98 1077.11 1469.87 1076.89 1472.44H1085.29ZM1092.15 1472.42H1099.74V1467.35H1101.85V1480H1099.74V1474.38H1092.15V1480H1090.04V1467.35H1092.15V1472.42ZM1104.48 1467.35H1106.59V1478.99H1106.95L1111.82 1467.35H1116.07V1480H1113.96V1468.36H1113.6L1108.73 1480H1104.48V1467.35ZM1125.28 1480.38H1124.8C1120.41 1480.38 1118.47 1478.42 1118.47 1473.98V1473.42C1118.47 1468.94 1120.34 1466.97 1124.56 1466.97H1125.04C1129.29 1466.97 1131.19 1468.98 1131.19 1473.42V1474.31H1120.58C1120.58 1477.43 1121.73 1478.37 1124.9 1478.37H1125.23C1127.83 1478.37 1128.69 1477.86 1129.17 1476.04H1131.38C1130.83 1479.04 1128.95 1480.38 1125.28 1480.38ZM1129.03 1472.44C1128.81 1469.92 1127.68 1468.98 1124.99 1468.98H1124.66C1121.9 1468.98 1120.84 1469.87 1120.63 1472.44H1129.03Z" fill="black" fill-opacity="0.5"/>


    <g style="transform-origin: 702px 625px;" class="point_alpha">
        <ellipse cx="702" cy="624.5" rx="32" ry="32.5" fill="#D9D9D9" fill-opacity="0.5"/>
        <circle cx="702" cy="625" r="20" fill="#616161"/>

        <animateTransform
                attributeName="transform"
                type="scale"
                values="0.9;1.1;0.9"
                dur="1.4s"
                repeatCount="indefinite"
        />
    </g>

    <g style="transform-origin: 1400px 310px;" class="point_gamma">
        <ellipse cx="1400" cy="309.5" rx="32" ry="32.5" fill="#D9D9D9" fill-opacity="0.5"/>
        <circle cx="1400" cy="310" r="20" fill="#616161"/>

        <animateTransform
                attributeName="transform"
                type="scale"
                values="0.9;1.1;0.9"
                dur="1.4s"
                repeatCount="indefinite"
        />
    </g>

    <g style="transform-origin: 1056px 1241px;" class="point_omega">
        <ellipse cx="1056" cy="1240.5" rx="32" ry="32.5" fill="#D9D9D9" fill-opacity="0.5"/>
        <circle cx="1056" cy="1241" r="20" fill="#616161"/>

        <animateTransform
                attributeName="transform"
                type="scale"
                values="0.9;1.1;0.9"
                dur="1.4s"
                repeatCount="indefinite"
        />
    </g>



    <style>
        .window_alpha,.window_gamma,.window_omega, .point_alpha, .point_gamma, .point_omega   {
        transition: 0.5s
        }

        .point_alpha:hover > circle {
            fill: #FFEF4A;
        }

        .point_omega:hover > circle {
        fill: #FFEF4A;
        }

        .point_gamma:hover > circle {
        fill: #FFEF4A;
        }

        .alpha_group:hover .window_alpha {
        fill: #FFEF4A;
        }

        .omega_group:hover .window_omega {
        fill: #FFEF4A;
        }

        .gamma_group:hover .window_gamma {
        fill: #FFEF4A;
        }
    </style>
</svg>



