<svg width="457" height="923" viewBox="0 0 457 923" fill="none" xmlns="http://www.w3.org/2000/svg">
    <path d="M109.841 119.28H92.9606V144H89.2806V115.84H109.841V119.28ZM119.546 122.28H120.346C127.666 122.28 130.906 125.56 130.906 133.04V133.96C130.906 141.36 127.666 144.64 120.346 144.64H119.546C112.306 144.64 109.066 141.36 109.066 133.96V133.04C109.066 125.56 112.306 122.28 119.546 122.28ZM119.706 141.28H120.266C123.826 141.28 125.786 140.4 126.666 138.28C127.106 137.2 127.306 135.72 127.306 133.84V133.24C127.306 129.36 126.506 127.32 124.466 126.36C123.466 125.88 122.066 125.64 120.266 125.64H119.706C116.146 125.64 114.226 126.52 113.346 128.68C112.906 129.76 112.666 131.28 112.666 133.24V133.84C112.666 137.64 113.466 139.64 115.506 140.56C116.506 141.04 117.906 141.28 119.706 141.28ZM145.135 144.64H144.375C137.535 144.64 134.495 141.36 134.495 133.96V133.04C134.495 125.64 137.535 122.28 144.375 122.28H145.135C151.095 122.28 154.055 124.68 154.815 130.08H151.175C150.575 126.76 148.975 125.64 145.015 125.64H144.495C141.255 125.64 139.495 126.52 138.695 128.68C138.295 129.76 138.095 131.28 138.095 133.16V133.8C138.095 139.48 139.615 141.28 144.495 141.28H145.015C149.135 141.28 150.815 140.16 151.415 136.92H155.055C154.375 142.24 151.335 144.64 145.135 144.64ZM176.819 126.2H168.499V144H164.979V126.2H156.659V122.92H176.819V126.2ZM179.817 122.92H183.337V142.32H183.937L192.057 122.92H199.137V144H195.617V124.6H195.017L186.897 144H179.817V122.92ZM207.048 131.36H219.688V122.92H223.208V144H219.688V134.64H207.048V144H203.528V122.92H207.048V131.36ZM227.591 122.92H231.111V142.32H231.711L239.831 122.92H246.911V144H243.391V124.6H242.791L234.671 144H227.591V122.92ZM270.102 140.72H273.382V149.48H270.102V144H251.302V122.92H254.822V140.72H266.582V122.92H270.102V140.72ZM276.019 138C276.019 133.6 278.579 131.4 283.659 131.4H292.299C292.299 127 290.779 125.56 286.379 125.56H285.739C281.539 125.56 279.979 126.72 279.979 129.92H276.659C276.659 124.52 279.219 122.28 285.659 122.28H286.379C292.939 122.28 295.859 125.24 295.859 132V140.56H297.499V144H294.699C294.019 144 293.539 143.88 293.219 143.68C292.539 143.28 292.299 142.4 292.299 140.44H291.699C290.859 143.48 288.819 144.64 284.699 144.64H283.779C278.619 144.64 276.019 142.52 276.019 138ZM284.019 141.36H284.739C290.139 141.36 292.299 139.64 292.299 134.72V134.48H284.459C280.819 134.48 279.579 135.32 279.579 137.84C279.579 140.44 280.939 141.36 284.019 141.36ZM101.945 168.84V180.64H117.905V168.84H121.585V197H117.905V184.08H101.945V197H98.265V168.84H101.945ZM146.019 168.84V172.28H130.539V180.68H143.339V184.12H130.539V193.56H146.019V197H126.859V168.84H146.019ZM149.984 168.84H153.664V194.88H154.464L165.784 168.84H173.264V197H169.584V170.96H168.784L157.424 197H149.984V168.84ZM162.024 165.6H161.344C157.064 165.6 155.144 163.88 155.144 160.04V159.64H157.744V159.88C157.744 162 158.704 162.72 161.464 162.72H161.864C164.704 162.72 165.624 162 165.624 159.88V159.64H168.224V160.04C168.224 163.88 166.304 165.6 162.024 165.6ZM178.538 168.84H186.178L193.338 194.52H194.138L201.258 168.84H208.818V197H205.138V170.92H204.338L197.098 197H190.298L183.018 170.92H182.218V197H178.538V168.84ZM221.245 168.84H228.205L236.965 197H233.205L230.765 189.16H218.565L216.125 197H212.445L221.245 168.84ZM229.725 185.88L225.085 170.96H224.285L219.605 185.88H229.725ZM240.609 168.84H252.769C259.169 168.84 262.009 171.52 262.009 177.48V178.12C262.009 184.08 259.169 186.72 252.769 186.72H244.289V197H240.609V168.84ZM251.969 183.28C256.689 183.28 258.169 181.96 258.169 177.96V177.6C258.169 173.6 256.689 172.28 251.969 172.28H244.289V183.28H251.969ZM265.843 168.84H269.523V181.04H276.843L283.483 168.84H287.603L280.163 182.2V183L288.763 197H284.523L276.843 184.48H269.523V197H265.843V168.84Z" fill="white"/>
    <path d="M10 260H94L94 913C94 918.5 98.5 923 104 923H164C169.5 923 174 918.5 174 913L174 260H373.8C376.9 260 379.8 258.6 381.7 256.1L454.5 161.6C457.3 158 457.3 153 454.5 149.4L381.7 54.9C379.8 52.4 376.9 51 373.8 51H174V10C174 4.5 169.5 0 164 0H104C98.5 0 94 4.5 94 10V51H10C4.50001 51 0 55.5 0 61V250C0 255.5 4.50001 260 10 260ZM154 903H114L114 260H154L154 903ZM114 20H154V51H114V20ZM20 71H368.9L434 155.5L368.9 240H20V71Z" fill="#E68F61"/>
</svg>
