<svg width="648" height="732" viewBox="0 0 648 732" fill="none" xmlns="http://www.w3.org/2000/svg">
    <rect y="136" width="647" height="594" fill="#A39AFF"/>
    <rect x="349" width="298" height="594" fill="#A39AFF"/>
    <rect y="712" width="576" height="19.981" transform="rotate(-90 0 712)" fill="#233346"/>
    <rect x="647.387" y="732" width="647" height="20" transform="rotate(180 647.387 732)" fill="#233346"/>
    <rect x="641.65" y="20" width="277" height="20" transform="rotate(180 641.65 20)" fill="#233346"/>
    <rect x="368.65" y="156" width="232" height="20" transform="rotate(180 368.65 156)" fill="#233346"/>
    <rect x="349" y="156" width="156" height="20" transform="rotate(-90 349 156)" fill="#233346"/>
    <rect x="627" y="730" width="730" height="20" transform="rotate(-90 627 730)" fill="#233346"/>
    <rect x="415" y="272" width="212" height="10" fill="#233346"/>
    <rect x="334" y="282" width="430" height="10" transform="rotate(90 334 282)" fill="#233346"/>
    <rect x="471" y="156" width="41" height="10" transform="rotate(90 471 156)" fill="#233346"/>
    <rect x="635" y="20" width="126" height="70" transform="rotate(90 635 20)" fill="#233346"/>
    <rect x="471" y="255" width="17" height="10" transform="rotate(90 471 255)" fill="#233346"/>
    <rect x="589" y="226" width="46" height="10" transform="rotate(90 589 226)" fill="#233346"/>
    <rect x="632" y="272" width="46" height="46" transform="rotate(180 632 272)" fill="#233346"/>
    <rect x="386" y="156" width="17" height="10" transform="rotate(180 386 156)" fill="#233346"/>
    <rect x="20" y="272" width="169" height="10" fill="#233346"/>
    <rect x="273" y="272" width="61" height="10" fill="#233346"/>
    <rect x="461" y="146" width="166" height="10" fill="#233346"/>
    <rect x="383" y="25" width="31" height="21" rx="5" fill="white" fill-opacity="0.5"/>
    <path d="M482 166H515V180C515 182.761 512.761 185 510 185H487C484.239 185 482 182.761 482 180V166Z" fill="white" fill-opacity="0.5"/>
    <path d="M606 173C606 175.761 608.239 178 611 178H613C615.761 178 618 180.239 618 183V204C618 206.761 615.761 209 613 209H589C586.239 209 584 206.761 584 204V171C584 168.239 586.239 166 589 166H601C603.761 166 606 168.239 606 171V173Z" fill="white" fill-opacity="0.5"/>
    <rect x="373" y="34" width="8" height="3" rx="1.5" fill="white" fill-opacity="0.5"/>
    <rect x="371.5" y="23.5" width="44" height="24" rx="4.5" stroke="white" stroke-opacity="0.5"/>
    <rect x="579.5" y="159.5" width="44" height="55" stroke="white" stroke-opacity="0.5"/>
    <rect x="538.5" y="395.5" width="77" height="175" rx="4.5" stroke="white" stroke-opacity="0.5"/>
    <path d="M520.5 159.5V180C520.5 185.247 516.247 189.5 511 189.5H486C480.753 189.5 476.5 185.247 476.5 180V159.5H520.5Z" stroke="white" stroke-opacity="0.5"/>
    <circle cx="405.5" cy="35.5" r="2.5" fill="#233346"/>
    <circle cx="405.5" cy="35.5" r="2.5" fill="white"/>
    <circle cx="498.5" cy="178.5" r="2.5" fill="white"/>
    <circle cx="611.5" cy="172.5" r="2.5" fill="white"/>
    <rect x="557" y="224" width="18" height="38" rx="5" fill="white" fill-opacity="0.5"/>
    <path d="M526 242C526 233.716 532.716 227 541 227H555V259H541C532.716 259 526 252.284 526 244V242Z" fill="white" fill-opacity="0.5"/>
    <circle cx="565.5" cy="242.5" r="2.5" fill="white"/>
    <rect x="539" y="64" width="18" height="38" rx="5" fill="white" fill-opacity="0.5"/>
    <path d="M508 82C508 73.7157 514.716 67 523 67H537V99H523C514.716 99 508 92.2843 508 84V82Z" fill="white" fill-opacity="0.5"/>
    <circle cx="547.5" cy="82.5" r="2.5" fill="white"/>
    <path d="M548 542C548 539.239 550.239 537 553 537H603C605.761 537 608 539.239 608 542V557C608 559.761 605.761 562 603 562H553C550.239 562 548 559.761 548 557V542Z" fill="white" fill-opacity="0.5"/>
    <path d="M530 632C530 629.239 532.239 627 535 627H547V665H535C532.239 665 530 662.761 530 660V632Z" fill="white" fill-opacity="0.5"/>
    <path d="M547 408C547 405.239 549.239 403 552 403H602C604.761 403 607 405.239 607 408V521C607 523.761 604.761 526 602 526H552C549.239 526 547 523.761 547 521V408Z" fill="white" fill-opacity="0.5"/>
    <rect x="345.5" y="395.5" width="77" height="175" rx="4.5" stroke="white" stroke-opacity="0.5"/>
    <path d="M355 542C355 539.239 357.239 537 360 537H410C412.761 537 415 539.239 415 542V557C415 559.761 412.761 562 410 562H360C357.239 562 355 559.761 355 557V542Z" fill="white" fill-opacity="0.5"/>
    <path d="M354 408C354 405.239 356.239 403 359 403H409C411.761 403 414 405.239 414 408V521C414 523.761 411.761 526 409 526H359C356.239 526 354 523.761 354 521V408Z" fill="white" fill-opacity="0.5"/>
    <path d="M205 162H349V192C349 194.761 346.761 197 344 197H210C207.239 197 205 194.761 205 192V162Z" fill="white" fill-opacity="0.5"/>
    <path d="M614 287V380H568C565.239 380 563 377.761 563 375V292C563 289.239 565.239 287 568 287H614Z" fill="white" fill-opacity="0.5"/>
    <path d="M33 385V292H79C81.7614 292 84 294.239 84 297V380C84 382.761 81.7614 385 79 385H33Z" fill="white" fill-opacity="0.5"/>
    <path d="M554 595C554 592.239 556.239 590 559 590H611C613.761 590 616 592.239 616 595V696C616 698.761 613.761 701 611 701H559C556.239 701 554 698.761 554 696V595Z" fill="white" fill-opacity="0.5"/>
    <path d="M227 631C227 628.239 229.239 626 232 626H244V664H232C229.239 664 227 661.761 227 659V631Z" fill="white" fill-opacity="0.5"/>
    <path d="M251 594C251 591.239 253.239 589 256 589H308C310.761 589 313 591.239 313 594V695C313 697.761 310.761 700 308 700H256C253.239 700 251 697.761 251 695V594Z" fill="white" fill-opacity="0.5"/>
    <path d="M431 659C431 661.761 428.761 664 426 664H414V626H426C428.761 626 431 628.239 431 631V659Z" fill="white" fill-opacity="0.5"/>
    <path d="M407 696C407 698.761 404.761 701 402 701H350C347.239 701 345 698.761 345 696V595C345 592.239 347.239 590 350 590H402C404.761 590 407 592.239 407 595V696Z" fill="white" fill-opacity="0.5"/>
    <path d="M119 658C119 660.761 116.761 663 114 663H102V625H114C116.761 625 119 627.239 119 630V658Z" fill="white" fill-opacity="0.5"/>
    <path d="M95 695C95 697.761 92.7614 700 90 700H38C35.2386 700 33 697.761 33 695V594C33 591.239 35.2386 589 38 589H90C92.7614 589 95 591.239 95 594V695Z" fill="white" fill-opacity="0.5"/>
    <rect x="235.5" y="395.5" width="77" height="175" rx="4.5" stroke="white" stroke-opacity="0.5"/>
    <path d="M245 542C245 539.239 247.239 537 250 537H300C302.761 537 305 539.239 305 542V557C305 559.761 302.761 562 300 562H250C247.239 562 245 559.761 245 557V542Z" fill="white" fill-opacity="0.5"/>
    <path d="M244 408C244 405.239 246.239 403 249 403H299C301.761 403 304 405.239 304 408V521C304 523.761 301.761 526 299 526H249C246.239 526 244 523.761 244 521V408Z" fill="white" fill-opacity="0.5"/>
    <rect x="33.5" y="395.5" width="77" height="175" rx="4.5" stroke="white" stroke-opacity="0.5"/>
    <path d="M43 542C43 539.239 45.2386 537 48 537H98C100.761 537 103 539.239 103 542V557C103 559.761 100.761 562 98 562H48C45.2386 562 43 559.761 43 557V542Z" fill="white" fill-opacity="0.5"/>
    <path d="M42 408C42 405.239 44.2386 403 47 403H97C99.7614 403 102 405.239 102 408V521C102 523.761 99.7614 526 97 526H47C44.2386 526 42 523.761 42 521V408Z" fill="white" fill-opacity="0.5"/>
</svg>
