<svg width="393" height="512" viewBox="0 0 393 512" fill="none" xmlns="http://www.w3.org/2000/svg">
    <path d="M358.399 136.533H285.783L311.741 115.575C318.29 118.049 325.353 119.466 332.757 119.466C365.69 119.466 392.49 92.67 392.49 59.733C392.49 26.795 365.69 0 332.757 0C299.824 0 273.024 26.796 273.024 59.733C273.024 67.13 274.439 74.187 276.908 80.731L231.827 136.533H34.133C15.308 136.533 0 151.846 0 170.666V477.866C0 496.687 15.308 511.999 34.133 511.999H272.983C275.25 511.999 277.416 511.099 279.016 509.499L390.033 398.482C390.625 397.89 391.012 397.158 391.402 396.434C391.536 396.188 391.755 396.002 391.865 395.741C392.298 394.707 392.533 393.591 392.533 392.449V170.667C392.533 151.846 377.224 136.533 358.399 136.533ZM332.758 17.067C356.283 17.067 375.425 36.209 375.425 59.734C375.425 83.259 356.283 102.4 332.758 102.4C309.233 102.4 290.091 83.258 290.091 59.733C290.091 36.208 309.233 17.067 332.758 17.067ZM285.941 96.717C288.828 100.363 292.122 103.658 295.768 106.545L244.675 147.792L285.941 96.717ZM281.508 482.875V400.962H363.421L281.508 482.875ZM375.466 383.896H273.049C270.671 383.896 268.53 384.874 266.983 386.44C265.417 387.987 264.44 390.129 264.44 392.504V494.933H34.133C24.725 494.933 17.066 487.279 17.066 477.866V170.666C17.066 161.253 24.724 153.599 34.133 153.599H218.039L181.008 199.436C178.266 202.832 178.533 207.744 181.616 210.832C183.274 212.49 185.458 213.332 187.649 213.332C189.541 213.332 191.441 212.707 193.007 211.436L264.644 153.599H358.399C367.807 153.599 375.466 161.253 375.466 170.666V383.896Z" fill="#E68F61"/>
    <path d="M116.889 272.84V301H113.209V276.28H97.2888V301H93.6087V272.84H116.889ZM125.803 297.12H125.243V309.8H121.723V279.92H125.243V283.68H125.803C127.283 280.76 129.723 279.28 133.123 279.28H133.803C140.043 279.28 142.883 282.6 142.883 290.08V290.76C142.883 298.28 140.043 301.64 133.803 301.64H133.123C129.403 301.64 126.963 300.12 125.803 297.12ZM131.923 298.32H132.363C134.123 298.32 135.483 298.08 136.483 297.6C138.443 296.64 139.283 294.52 139.283 290.68V290.2C139.283 286.32 138.523 284.24 136.523 283.28C135.523 282.8 134.123 282.56 132.363 282.56H131.963C127.283 282.56 125.243 285.6 125.243 290.2V290.68C125.243 292.8 125.803 294.6 126.963 296.08C128.083 297.56 129.723 298.32 131.923 298.32ZM146.48 295C146.48 290.6 149.04 288.4 154.12 288.4H162.76C162.76 284 161.24 282.56 156.84 282.56H156.2C152 282.56 150.44 283.72 150.44 286.92H147.12C147.12 281.52 149.68 279.28 156.12 279.28H156.84C163.4 279.28 166.32 282.24 166.32 289V297.56H167.96V301H165.16C164.48 301 164 300.88 163.68 300.68C163 300.28 162.76 299.4 162.76 297.44H162.16C161.32 300.48 159.28 301.64 155.16 301.64H154.24C149.08 301.64 146.48 299.52 146.48 295ZM154.48 298.36H155.2C160.6 298.36 162.76 296.64 162.76 291.72V291.48H154.92C151.28 291.48 150.04 292.32 150.04 294.84C150.04 297.44 151.4 298.36 154.48 298.36ZM171.22 279.92H181.7C186.94 279.92 189.26 281.6 189.26 285.48V285.6C189.26 287.8 188.14 289.04 185.62 289.64V290.4C188.34 290.92 189.66 292.56 189.66 295.28V295.36C189.66 299.24 187.34 301 182.1 301H171.22V279.92ZM181.82 297.72C185.3 297.72 186.46 297.08 186.46 295.04V294.68C186.46 292.32 185.46 291.52 182.38 291.52H174.74V297.72H181.82ZM181.98 288.48C185.06 288.48 186.06 287.76 186.06 285.68V285.36C186.06 283.6 184.9 283.04 181.42 283.04H174.74V288.48H181.98ZM193.95 279.92H197.47V299.32H198.07L206.19 279.92H213.27V301H209.75V281.6H209.15L201.03 301H193.95V279.92ZM215.861 297.8H217.181C219.221 297.8 220.141 295.16 220.461 290.2C220.621 287.72 220.701 284.28 220.701 279.92H236.381V301H232.861V283.2H224.261C224.261 295.08 222.341 301 218.501 301H215.861V297.8ZM250.866 279.28H251.666C258.986 279.28 262.226 282.56 262.226 290.04V290.96C262.226 298.36 258.986 301.64 251.666 301.64H250.866C243.626 301.64 240.386 298.36 240.386 290.96V290.04C240.386 282.56 243.626 279.28 250.866 279.28ZM251.026 298.28H251.586C255.146 298.28 257.106 297.4 257.986 295.28C258.426 294.2 258.626 292.72 258.626 290.84V290.24C258.626 286.36 257.826 284.32 255.786 283.36C254.786 282.88 253.386 282.64 251.586 282.64H251.026C247.466 282.64 245.546 283.52 244.666 285.68C244.226 286.76 243.986 288.28 243.986 290.24V290.84C243.986 294.64 244.786 296.64 246.826 297.56C247.826 298.04 249.226 298.28 251.026 298.28ZM294.423 281.84V290.88H297.223V294.32H294.423V301H290.743V294.32H274.943V287.04H275.103C277.463 287.04 279.303 286.6 280.623 285.76C283.303 284.12 284.383 280.44 284.383 273.6V272.84H288.063V273.52C288.063 284.6 284.703 289.8 277.063 290.44V290.88H290.743V281.84H294.423ZM189.209 349.4V354H184.609V349.4H189.209ZM197.803 349.4V354H193.203V349.4H197.803ZM206.397 349.4V354H201.797V349.4H206.397Z" fill="white"/>
</svg>
