<svg width="393" height="512" viewBox="0 0 393 512" fill="none" xmlns="http://www.w3.org/2000/svg">
    <path d="M358.399 136.533H285.783L311.741 115.575C318.29 118.049 325.353 119.466 332.757 119.466C365.69 119.466 392.49 92.67 392.49 59.733C392.49 26.795 365.69 0 332.757 0C299.824 0 273.024 26.796 273.024 59.733C273.024 67.13 274.439 74.187 276.908 80.731L231.827 136.533H34.133C15.308 136.533 0 151.846 0 170.666V477.866C0 496.687 15.308 511.999 34.133 511.999H272.983C275.25 511.999 277.416 511.099 279.016 509.499L390.033 398.482C390.625 397.89 391.012 397.158 391.402 396.434C391.536 396.188 391.755 396.002 391.865 395.741C392.298 394.707 392.533 393.591 392.533 392.449V170.667C392.533 151.846 377.224 136.533 358.399 136.533ZM332.758 17.067C356.283 17.067 375.425 36.209 375.425 59.734C375.425 83.259 356.283 102.4 332.758 102.4C309.233 102.4 290.091 83.258 290.091 59.733C290.091 36.208 309.233 17.067 332.758 17.067ZM285.941 96.717C288.828 100.363 292.122 103.658 295.768 106.545L244.675 147.792L285.941 96.717ZM281.508 482.875V400.962H363.421L281.508 482.875ZM375.466 383.896H273.049C270.671 383.896 268.53 384.874 266.983 386.44C265.417 387.987 264.44 390.129 264.44 392.504V494.933H34.133C24.725 494.933 17.066 487.279 17.066 477.866V170.666C17.066 161.253 24.724 153.599 34.133 153.599H218.039L181.008 199.436C178.266 202.832 178.533 207.744 181.616 210.832C183.274 212.49 185.458 213.332 187.649 213.332C189.541 213.332 191.441 212.707 193.007 211.436L264.644 153.599H358.399C367.807 153.599 375.466 161.253 375.466 170.666V383.896Z" fill="#E68F61"/>
    <path d="M116.889 261.84V290H113.209V265.28H97.2888V290H93.6087V261.84H116.889ZM125.803 286.12H125.243V298.8H121.723V268.92H125.243V272.68H125.803C127.283 269.76 129.723 268.28 133.123 268.28H133.803C140.043 268.28 142.883 271.6 142.883 279.08V279.76C142.883 287.28 140.043 290.64 133.803 290.64H133.123C129.403 290.64 126.963 289.12 125.803 286.12ZM131.923 287.32H132.363C134.123 287.32 135.483 287.08 136.483 286.6C138.443 285.64 139.283 283.52 139.283 279.68V279.2C139.283 275.32 138.523 273.24 136.523 272.28C135.523 271.8 134.123 271.56 132.363 271.56H131.963C127.283 271.56 125.243 274.6 125.243 279.2V279.68C125.243 281.8 125.803 283.6 126.963 285.08C128.083 286.56 129.723 287.32 131.923 287.32ZM146.48 284C146.48 279.6 149.04 277.4 154.12 277.4H162.76C162.76 273 161.24 271.56 156.84 271.56H156.2C152 271.56 150.44 272.72 150.44 275.92H147.12C147.12 270.52 149.68 268.28 156.12 268.28H156.84C163.4 268.28 166.32 271.24 166.32 278V286.56H167.96V290H165.16C164.48 290 164 289.88 163.68 289.68C163 289.28 162.76 288.4 162.76 286.44H162.16C161.32 289.48 159.28 290.64 155.16 290.64H154.24C149.08 290.64 146.48 288.52 146.48 284ZM154.48 287.36H155.2C160.6 287.36 162.76 285.64 162.76 280.72V280.48H154.92C151.28 280.48 150.04 281.32 150.04 283.84C150.04 286.44 151.4 287.36 154.48 287.36ZM171.22 268.92H181.7C186.94 268.92 189.26 270.6 189.26 274.48V274.6C189.26 276.8 188.14 278.04 185.62 278.64V279.4C188.34 279.92 189.66 281.56 189.66 284.28V284.36C189.66 288.24 187.34 290 182.1 290H171.22V268.92ZM181.82 286.72C185.3 286.72 186.46 286.08 186.46 284.04V283.68C186.46 281.32 185.46 280.52 182.38 280.52H174.74V286.72H181.82ZM181.98 277.48C185.06 277.48 186.06 276.76 186.06 274.68V274.36C186.06 272.6 184.9 272.04 181.42 272.04H174.74V277.48H181.98ZM193.95 268.92H197.47V288.32H198.07L206.19 268.92H213.27V290H209.75V270.6H209.15L201.03 290H193.95V268.92ZM215.861 286.8H217.181C219.221 286.8 220.141 284.16 220.461 279.2C220.621 276.72 220.701 273.28 220.701 268.92H236.381V290H232.861V272.2H224.261C224.261 284.08 222.341 290 218.501 290H215.861V286.8ZM250.866 268.28H251.666C258.986 268.28 262.226 271.56 262.226 279.04V279.96C262.226 287.36 258.986 290.64 251.666 290.64H250.866C243.626 290.64 240.386 287.36 240.386 279.96V279.04C240.386 271.56 243.626 268.28 250.866 268.28ZM251.026 287.28H251.586C255.146 287.28 257.106 286.4 257.986 284.28C258.426 283.2 258.626 281.72 258.626 279.84V279.24C258.626 275.36 257.826 273.32 255.786 272.36C254.786 271.88 253.386 271.64 251.586 271.64H251.026C247.466 271.64 245.546 272.52 244.666 274.68C244.226 275.76 243.986 277.28 243.986 279.24V279.84C243.986 283.64 244.786 285.64 246.826 286.56C247.826 287.04 249.226 287.28 251.026 287.28ZM276.063 283.12L286.743 277.72C288.903 276.64 290.383 275.8 291.183 275.2C291.943 274.64 292.463 274 292.663 273.32C292.863 272.64 292.983 271.48 292.983 269.84V269.6C292.983 268.36 292.743 267.4 292.303 266.72C291.383 265.36 289.423 264.8 285.783 264.8C282.303 264.8 280.463 265.44 279.623 266.92C279.183 267.68 278.983 268.76 278.983 270.08V272.64H275.263V270.48C275.263 264.04 278.303 261.2 285.143 261.2H286.423C293.503 261.2 296.703 263.6 296.703 269V269.72C296.703 273.12 296.143 275.28 294.223 277.2C293.263 278.2 291.863 279.12 290.063 280L278.223 285.76V286.56H296.823V290H276.063V283.12ZM189.209 338.4V343H184.609V338.4H189.209ZM197.803 338.4V343H193.203V338.4H197.803ZM206.397 338.4V343H201.797V338.4H206.397Z" fill="white"/>
</svg>
