<svg width="75" height="62" viewBox="0 0 75 62" fill="none" xmlns="http://www.w3.org/2000/svg">
    <path d="M35.8204 26.4268V25.0328H39.1179V26.4268H42.9973V25.0328H44.5491V21.8012H42.9973V20.217H40.7343V18.6963H39.3765V17.3656H35.2385V18.6963H33.7514V20.217H31.941V21.8012H30.4539V25.0328H31.941V26.4268H35.8204Z" fill="white" stroke="white" stroke-width="0.5"/>
    <path d="M46.0596 39.5152V35.488H47.5698V39.5152H46.0596Z" stroke="#FF0000" stroke-width="0.5"/>
    <path d="M1.94351 26.8285H0.25V25.0672H1.94351V23.7625H4.48377V22.0664H6.43782V20.6313H8.45701V18.9352H10.7367V17.4348H12.7559V16.0649H14.5797V14.7602H16.7292V13.3903H18.4878V12.0204H20.2464V10.5852H22.3959V9.34576H24.3499V7.91061H26.1086V6.67116H27.9324V5.17077H29.8864V3.99655H31.7102V2.62663H33.534V1.25671H35.488V2.62663H33.534V3.99655H31.7102V5.17077H29.8864V6.67116H27.9324V7.91061H26.1086V9.34576H24.3499V10.5852H22.3959V12.0204H20.2464V13.3903H18.4878V14.7602H16.7292V16.0649H14.5797V17.4348H12.7559V18.9352H10.7367V20.6313H8.45701V22.0664H6.43782V23.7625H4.48377V25.0672H1.94351V26.8285H3.76729V58.141H1.94351V26.8285Z" fill="white"/>
    <path d="M1.92918 27.0238H0.25V25.2735H1.92918M1.92918 27.0238V25.2735M1.92918 27.0238H3.73753V58.1411H1.92918V27.0238ZM1.92918 25.2735H4.44795V23.9769M1.92918 25.2735V23.9769H4.44795M4.44795 23.9769V22.2914H6.38547M4.44795 23.9769H6.38547V22.2914M6.38547 22.2914V20.8652H8.38757M6.38547 22.2914H8.38757V20.8652M8.38757 20.8652V19.1797H10.648M8.38757 20.8652H10.648V19.1797M10.648 19.1797V17.6886H12.6501M10.648 19.1797H12.6501V17.6886M12.6501 17.6886V16.3273H14.4585M12.6501 17.6886H14.4585V16.3273M14.4585 16.3273V15.0307H16.5897M14.4585 16.3273H16.5897V15.0307M16.5897 15.0307V13.6693H18.3335M16.5897 15.0307H18.3335V13.6693M18.3335 13.6693V12.3079H20.0773M18.3335 13.6693H20.0773V12.3079M20.0773 12.3079V10.8817H22.2085M20.0773 12.3079H22.2085V10.8817M22.2085 10.8817V9.65001H24.146M22.2085 10.8817H24.146V9.65001M24.146 9.65001V8.2238H25.8898M24.146 9.65001H25.8898V8.2238M25.8898 8.2238V6.99207H27.6982M25.8898 8.2238H27.6982V6.99207M27.6982 6.99207V5.50104H29.6357M27.6982 6.99207H29.6357V5.50104M29.6357 5.50104V4.33414H31.444M29.6357 5.50104H31.444V4.33414M31.444 4.33414V2.97276H33.2524M31.444 4.33414H33.2524V2.97276M33.2524 2.97276V1.61138H35.1899M33.2524 2.97276H35.1899V1.61138M35.1899 1.61138V0.25H36.9982M35.1899 1.61138H36.9982" stroke="white" stroke-width="0.5"/>
    <path d="M6.29086 59.6514H1.76025V61.665H6.29086V59.6514Z" fill="white"/>
    <path d="M6.79419 59.4117V52.9741H8.27285V51.2359H9.68723V49.6909H11.1016V48.4033H12.7731V46.9871H14.4447V45.6352H15.7947V43.9614H17.3377V42.0301H18.8807V36.0431H20.1022V30.9574H22.2237V32.3737H23.4452V33.7899H24.9239V35.4637H26.5311V33.7899H29.5527V35.4637H30.9671V37.7169H33.4744V39.6482H32.3815V41.1288H30.0671V42.7382H27.5598V44.7339H28.9741V51.6865H27.5598V59.7336H29.6813V61.6648H25.2453V60.5704H23.831V56.901H22.5452V53.8109H20.9379V56.2572H19.5236V57.931H17.9163V59.4117H21.9666V61.6648H8.5943V59.4117H6.79419Z" fill="white"/>
    <path d="M6.29086 59.6514H1.76025V61.665H6.29086V59.6514Z" stroke="white" stroke-width="0.5"/>
    <path d="M6.79419 59.4117V52.9741H8.27285V51.2359H9.68723V49.6909H11.1016V48.4033H12.7731V46.9871H14.4447V45.6352H15.7947V43.9614H17.3377V42.0301H18.8807V36.0431H20.1022V30.9574H22.2237V32.3737H23.4452V33.7899H24.9239V35.4637H26.5311V33.7899H29.5527V35.4637H30.9671V37.7169H33.4744V39.6482H32.3815V41.1288H30.0671V42.7382H27.5598V44.7339H28.9741V51.6865H27.5598V59.7336H29.6813V61.6648H25.2453V60.5704H23.831V56.901H22.5452V53.8109H20.9379V56.2572H19.5236V57.931H17.9163V59.4117H21.9666V61.6648H8.5943V59.4117H6.79419Z" stroke="white" stroke-width="0.5"/>
    <path d="M72.7398 51.5147H70.7884V56.8467H70.0729V58.9025H68.5118V59.6091H65.3245V58.6455H66.8206V57.1037H68.0564V53.1207H66.8206V51.1935H65.3245V49.459H63.7634V47.8529H62.2673V46.6323H60.5111V44.8978H59.2102V43.613H57.6491V41.236H56.4132V37.7028H55.2424V34.3622H54.0065V32.3707H52.4454V30.9574H44.6398V32.3707C44.6398 32.2679 43.5991 32.3279 43.0787 32.3707V33.9767H41.5827V36.5464H38.0051V39.373H39.6963V40.7863H49.4532V39.373H50.6891V35.5185H52.4454V39.5658H50.8843V41.1076H49.4532V42.5851H45.0301V43.8699H43.5991V51.2577H45.0301V57.6176H43.5991V59.2879H41.9079V61.6648H47.3067V59.4164H48.9329V56.2686H50.6891V53.7631H52.3803V56.2686H54.0715V58.1316H55.5025V59.6091H49.8435V61.6648H68.7719V60.4442H70.9185V59.2237H72.0893V56.8467H72.7398V51.5147Z" fill="white" stroke="white" stroke-width="0.5"/>
    <path d="M29.9187 20.8893V19.5104H31.4607V16.49H29.9187V14.8485H27.3953V16.49H25.9233V19.5104H27.3953V20.8893H29.9187Z" fill="white" stroke="white" stroke-width="0.5"/>
    <path d="M47.1746 20.8893V19.6254H48.5765V16.8567H47.1746V15.3519H44.8806V16.8567H43.5425V19.6254H44.8806V20.8893H47.1746Z" fill="white" stroke="white" stroke-width="0.5"/>
    <path d="M34.5896 15.8554V14.4765H35.9915V11.4561H34.5896V9.81458H32.2957V11.4561H30.9575V14.4765H32.2957V15.8554H34.5896Z" fill="white" stroke="white" stroke-width="0.5"/>
    <path d="M42.1404 15.8554V14.4765H43.5423V11.4561H42.1404V9.81458H39.8465V11.4561H38.5083V14.4765H39.8465V15.8554H42.1404Z" fill="white" stroke="white" stroke-width="0.5"/>
    <path d="M74.25 27.0072V25.2336H72.5565V23.9198H70.0162V22.2119H68.0622V20.7667H66.043V19.0587H63.7633V17.5479H61.7441V16.1684H59.9203V14.8546H59.2689V8.02279H61.7441V14.8546V15.5772H62.749V16.1684H63.7633L63.7538 15.5772L63.633 8.02279H62.0698V6.57761H59.2689V8.02279H57.7708V13.4751H56.0122V12.0956H54.2536V10.6504H52.1041V9.40229H50.15V7.9571H48.3914V6.70899H46.5676V5.19812H44.6136V4.0157H42.7898V2.63621H40.966V1.25671H39.012V2.63621H40.966V4.0157H42.7898V5.19812H44.6136V6.70899H46.5676V7.9571H48.3914V9.40229H50.15V10.6504H52.1041V12.0956H54.2536V13.4751H56.0122V14.8546H57.7708V16.1684H59.9203V17.5479H61.7441V19.0587H63.7633V20.7667H66.043V22.2119H68.0622V23.9198H70.0162V25.2336H72.5565V27.0072H70.9281V50.59H72.6216V27.0072H74.25Z" fill="white"/>
    <path d="M72.5477 27.1806V25.42M72.5477 27.1806C71.2907 27.1806 70.9329 27.1806 70.911 27.1806V50.5901H72.6132V27.1806M72.5477 27.1806H72.6132M72.5477 25.42H74.2499V27.1806H72.6132M72.5477 25.42H69.9945V24.1159M72.5477 25.42V24.1159H69.9945M69.9945 24.1159V22.4205H68.0304M69.9945 24.1159H68.0304V22.4205M68.0304 22.4205V20.9859H66.0009M68.0304 22.4205H66.0009V20.9859M66.0009 20.9859V19.2905H63.7095M66.0009 20.9859H63.7095V19.2905M63.7095 19.2905V17.7908H61.68M63.7095 19.2905H61.68V17.7908M61.68 17.7908H59.8468V16.4214M61.68 17.7908V16.4214H59.8468M59.8468 16.4214V15.1173H59.1921M59.8468 16.4214H57.6864V15.1173M59.1921 15.1173H57.6864M59.1921 15.1173V8.33571M57.6864 15.1173V13.7479M57.6864 15.1173H55.9187V13.7479M57.6864 13.7479H55.9187M57.6864 13.7479V8.33571H59.1921M55.9187 13.7479V12.3786H54.1511M55.9187 13.7479H54.1511V12.3786M59.1921 8.33571V6.90115H62.0073V8.33571M59.1921 8.33571H61.68M54.1511 12.3786V10.944H51.9906M54.1511 12.3786H51.9906V10.944M51.9906 10.944V9.70506H50.0265M51.9906 10.944H50.0265V9.70506M50.0265 9.70506V8.2705H48.2589M50.0265 9.70506H48.2589V8.2705M48.2589 8.2705V7.03156H46.4258M48.2589 8.2705H46.4258V7.03156M46.4258 7.03156V5.53179H44.4617M46.4258 7.03156H44.4617V5.53179M44.4617 5.53179V4.35806H42.6286M44.4617 5.53179H42.6286V4.35806M42.6286 4.35806V2.98871H40.7955M42.6286 4.35806H40.7955V2.98871M40.7955 2.98871V1.61935H38.8314M40.7955 2.98871H38.8314V1.61935M38.8314 1.61935V0.25H36.9983M38.8314 1.61935H36.9983M62.0073 8.33571H63.5785L63.6999 15.8346M62.0073 8.33571H61.68M61.68 8.33571V15.1173V15.8346H62.69M62.69 15.8346V16.4214H63.7095L63.6999 15.8346M62.69 15.8346H63.6999" stroke="white" stroke-width="0.5"/>
    <path d="M39.0118 0.25H35.488V1.7602H39.0118V0.25Z" fill="white"/>
</svg>
